<svg style="width:176px;height:86px;" id="Слой_1" data-name="Слой 1" xmlns="http://www.w3.org/2000/svg" viewBox="0 0 845.13602 423"><defs><style>.cls-1{fill:#e82c2e;}.cls-1,.cls-2,.cls-3,.cls-4{fill-rule:evenodd;}.cls-2{fill:#0097a5;}.cls-3{fill:#09545e;}.cls-4{fill:#fff;}</style></defs><title>Бетховен_лого_ДЛЯ ПОДРЯДЧИКОВ</title><path class="cls-1" d="M425.99734,98.932c224.35511,0,407.36829,49.42856,407.36829,110.04434,0,60.63309-183.01318,110.06164-407.36829,110.06164-224.38884,0-407.36749-49.42855-407.36749-110.06164C18.62985,148.3606,201.6085,98.932,425.99734,98.932Z"/><path class="cls-2" d="M134.55072,12H717.41031a7.1837,7.1837,0,0,1,7.17871,7.16171V128.26352c-75.7616-22.0155-180.68317-35.68759-296.36389-35.68759-117.97687,0-224.76618,14.2373-300.85318,37.02414V19.16171A7.1949,7.1949,0,0,1,134.55072,12Z"/><path class="cls-2" d="M724.70865,293.63v79.5821c0,3.94046-3.35791,6.16763-7.17822,7.14416-170.3863,44.56262-422.06794,42.31815-582.85981,0-3.82083-.99356-7.196-3.2037-7.196-7.14416V292.311c76.087,22.78631,182.89334,37.0066,300.87015,37.0066,115.664,0,220.5859-13.67235,296.36392-35.68763Z"/><path class="cls-3" d="M298.80337,352.01883a15.34986,15.34986,0,0,1,7.69266-1.35352c5.25971.394,8.1893,3.22072,7.94953,6.75014-.22281,2.99822-2.39844,4.83138-5.25968,5.294v.06861c2.99848.66812,5.49945,2.91256,5.277,6.0823-.35974,5.37958-5.97974,6.853-10.57129,6.51062a15.59831,15.59831,0,0,1-7.23-2.22775c.61709-1.62708.89123-2.44974,1.49048-4.09464a14.73093,14.73093,0,0,0,5.80847,1.91874c2.79242.18881,4.59152-.85633,4.72845-2.84342.17148-2.63849-2.58715-3.35821-4.917-3.54672-.9252-.06885-1.38782-.10321-2.313-.15448.12018-1.61063.18848-2.41568.30817-4.009.92547.0516,1.38809.08587,2.31329.1542,2.484.18848,4.43708-.788,4.57428-2.68979.13751-1.55935-1.1307-2.72384-3.47754-2.89532a13.07257,13.07257,0,0,0-5.43142,1.01054c-.377-1.59334-.56528-2.38136-.9423-3.97447ZM351.504,365.50241c-.17148,6.92133-5.46546,12.507-12.60962,12.06143-7.17877-.44561-11.22208-6.01373-10.82782-12.867.42779-7.17873,5.3966-12.26721,12.50677-11.90692,7.41825.37643,11.11917,6.18463,10.93067,12.71252Zm141.31161-11.90747c.0856,1.78214.13748,2.67249.20578,4.45462-3.66629.1539-5.49975.23979-9.1488.39372.23984,6.52764.49661,13.02095.77072,19.53157-2.22714.08588-3.32388.13721-5.53375.20551-.30841-7.98377-.58252-15.98486-.89124-23.98563,5.8255-.20581,8.75537-.326,14.59729-.59979Zm116.50363-9.74837c.42835,3.68334.66809,5.49921,1.09674,9.16584,3.632-.42833,5.41364-.66816,9.04566-1.11376-.47962-3.66632-.71942-5.48248-1.199-9.1488,2.1756-.27413,3.27228-.4113,5.43116-.70272,1.06213,7.93276,2.09,15.86524,3.15234,23.79772-2.21014.29108-3.32379.42831-5.51672.71969-.51392-3.9923-.771-5.99667-1.28492-9.97113-3.59771.46261-5.41418.70243-9.02917,1.13045.47986,3.99205.73669,5.97939,1.21631,9.97142-2.2099.27411-3.30658.37674-5.51685.65088-.95923-7.93249-1.8844-15.88226-2.8269-23.849,2.15887-.23981,3.25555-.37671,5.43139-.65055Zm53.62586,4.45407c1.18237,6.8536-2.92957,13.34694-10.00574,14.30645-7.14416.97656-12.23291-3.68387-13.19244-10.4856-1.01081-7.11044,2.86126-13.07228,9.92035-14.11769,7.3667-1.09616,12.16406,3.85483,13.27783,10.29684Zm12.45575-13.56887a51.73818,51.73818,0,0,1,6.92132-1.662c3.30664-.56523,5.41419-.54822,7.31592.11963a5.27535,5.27535,0,0,1,3.68335,4.16353c.37732,2.073-.54791,4.21453-3.06677,5.705v.06888c2.87829.2398,5.29394,1.91906,5.82519,4.96829a6.31049,6.31049,0,0,1-1.62738,5.46547c-1.50811,1.679-4.33471,2.98092-9.1662,3.78653a41.17619,41.17619,0,0,1-6.01361.65054q-1.95336-11.61594-3.87182-23.26591ZM171.849,358.27237a17.56,17.56,0,0,1-6.37372.017c-6.95593-.97651-11.92422-6.9559-10.69058-13.98018,1.26767-7.2649,8.06936-11.56477,15.24814-10.34843a14.665,14.665,0,0,1,5.72226,2.00438c-.71943,1.62794-1.09641,2.41568-1.79911,4.02634a12.371,12.371,0,0,0-4.4541-1.61066c-4.24914-.68514-8.053,1.31926-8.94333,6.57893-.8056,4.74605,1.57578,8.22388,6.459,9.01221a13.38924,13.38924,0,0,0,4.71115-.05133c.05133,1.74756.06863,2.62092.12024,4.35176Zm51.80965-9.68031c-2.60419-.32543-3.90615-.49692-6.51034-.85663.25683-1.79917.34243-2.68952.59925-4.50595,7.38453.97651,11.08517,1.42213,18.50374,2.296-.22283,1.81587-.34246,2.7068-.56525,4.53969-2.62148-.30811-3.941-.462-6.57893-.805-.78832,6.442-1.61065,12.867-2.39869,19.30876-2.19345-.27411-3.28959-.411-5.51676-.70273q1.23348-9.63666,2.467-19.27415Zm31.64428-.925c-.37672,3.34064-.54822,5.00259-.89064,8.3262a20.13679,20.13679,0,0,1,2.96391.10318c5.20836.531,9.38862,3.42653,8.85767,8.7375a7.08161,7.08161,0,0,1-2.45,5.00318c-2.58714,2.10672-6.802,2.41568-10.55394,2.02139a45.117,45.117,0,0,1-5.96211-1.01086c.87393-7.93244,1.74728-15.83092,2.63849-23.76339,2.1586.2571,3.22073.37729,5.3966.5828ZM388.665,367.86621c-.03427,6.92191-5.174,12.64453-12.31851,12.37039-7.17871-.2911-11.35895-5.75656-11.13614-12.62719.27408-7.19574,5.12246-12.38685,12.21585-12.18131,7.45288.20578,11.27341,5.89349,11.2388,12.43811Zm34.93423,3.39282c-.12021-2.87829-.23983-6.35644-.23983-9.86856h-.06891c-.805,3.06653-1.79856,6.51059-2.74106,9.32007-1.19937,3.73517-1.79917,5.60263-2.99851,9.35458-1.73025,0-2.60388,0-4.35177-.017-1.01053-3.70066-1.54175-5.56809-2.53528-9.26874-.788-2.86127-1.55933-6.28812-2.14157-9.42346h-.06864c-.13714,3.23825-.32565,6.9389-.49661,9.92038-.20581,3.649-.326,5.4819-.54877,9.11422-2.05572-.01727-3.0838-.01727-5.13949-.0513q.92483-11.97564,1.83316-23.96864c2.91257.03433,4.386.05132,7.28134.05132.92523,3.22073,1.40515,4.81436,2.3298,8.01809.80564,2.7927,1.508,5.79087,2.03922,8.60056h.15424c.65084-2.77564,1.49047-5.92807,2.3298-8.61786,1.02841-3.18643,1.54233-4.78006,2.55286-7.9668,2.87829,0,4.31774,0,7.196-.017.44534,7.9838.94229,16.00187,1.40488,23.98621-2.15885.017-3.23832.017-5.39716.0343-.17151-3.6839-.23984-5.51678-.39371-9.20038Zm26.60706,2.75809c-.63406,2.48428-.9765,3.7352-1.62763,6.21948-2.2955.034-3.44351.034-5.722.06833q3.5457-12.05264,7.02423-24.12285c2.86133-.05127,4.3175-.0856,7.17877-.13745,2.68979,7.94975,5.44791,15.86519,8.20658,23.79772-2.39869.06826-3.59775.10315-5.99643.15448-.82261-2.45-1.25061-3.68366-2.03922-6.11692-2.827.06888-4.21429.10318-7.02429.13721Zm60.61609-2.2612c-.54791,2.484-.8396,3.752-1.38785,6.25351-2.29547.11963-3.44351.17093-5.73959.29114q3.13549-12.156,6.09961-24.363c2.87829-.1712,4.31741-.25683,7.17846-.4113q4.52321,11.74442,9.13184,23.472c-2.39868.15418-3.598.20548-5.99671.36-.90768-2.41571-1.37027-3.598-2.27853-6.03073-2.79269.18853-4.18021.25683-7.00723.42831Zm27.03546-18.161a14.84906,14.84906,0,0,1,7.36755-2.50131c5.25965-.42832,8.61786,1.93606,8.90894,5.4479.25683,3.01551-1.62763,5.14-4.386,6.06556v.034c3.06653.18851,5.87647,2.0217,6.1676,5.2251.44562,5.36316-4.88275,7.67566-9.47424,8.01868a15.47085,15.47085,0,0,1-7.46991-1.09677c.34247-1.71323.49664-2.56955.83911-4.28339a14.40368,14.40368,0,0,0,6.031,1.01141c2.80969-.22284,4.40332-1.54239,4.23187-3.51242-.2055-2.63852-3.06677-2.94693-5.37958-2.75842-.92523.06863-1.40484.1026-2.313.17123-.12017-1.593-.2055-2.39868-.32544-4.00875.94251-.06891,1.38758-.10318,2.31281-.17151,2.50153-.22278,4.28308-1.45642,4.12891-3.35819-.13691-1.57634-1.54175-2.53587-3.87214-2.34738a13.15383,13.15383,0,0,0-5.22509,1.85074c-.6341-1.52478-.92524-2.296-1.5423-3.7865Zm35.99658-4.62588c.25684,2.844.41077,4.26614.66754,7.09286.39435,3.83783.66846,7.64133.80554,10.84506l.0857-.0173c1.04541-2.91229,2.34729-6.23621,3.52942-8.926,1.69622-3.97476,2.55261-5.94485,4.23156-9.91986,2.22773-.2398,3.34089-.35971,5.5857-.58223.85632,7.93247,1.73022,15.882,2.56958,23.84874-2.02136.22278-3.03223.34241-5.07117.54822-.29114-2.827-.42859-4.23218-.73682-7.05856a99.63229,99.63229,0,0,1-.66833-10.10835l-.11963.017a62.55942,62.55942,0,0,1-3.25531,8.92632c-1.62738,3.66608-2.433,5.46548-4.0777,9.11453-2.51831.23981-3.76886.37668-6.30481.59952-.73669-7.94977-1.50769-15.89923-2.26141-23.883,1.98737-.1888,2.99792-.29111,5.02014-.4969ZM201.797,353.903c-3.54645-.4969-5.34531-.75372-8.909-1.25063-.32542,2.24476-.49692,3.35819-.82205,5.62,3.97445.58224,5.99641.87334,9.97114,1.43915-.22279,1.74756-.35971,2.63849-.59951,4.403-6.21923-.8569-9.32032-1.31952-15.52253-2.2442q1.77306-11.87313,3.56374-23.72937c5.91049.89122,8.892,1.302,14.7852,2.12457-.25682,1.78157-.37643,2.63849-.59923,4.40306-3.78653-.51393-5.65428-.788-9.42292-1.319-.29171,1.95307-.42861,2.9466-.71972,4.917,3.54613.53093,5.34528.77074,8.892,1.26764-.25708,1.76485-.377,2.62149-.61708,4.36876Zm443.70654-2.7068c.66833,4.69476,3.39221,7.65838,7.07611,7.11041,3.71765-.54877,5.31122-4.31772,4.60883-8.94328-.65137-4.28343-3.25562-7.64136-7.00733-7.09342-3.70111.54822-5.34546,4.31774-4.67761,8.92629Zm36.80164-8.29218c.70239-.12019,1.0794-.17151,1.79907-.30868,2.87829-.47963,4.1803-1.8842,3.88916-3.64934-.32544-1.79858-1.88471-2.501-4.33472-2.08971a16.23861,16.23861,0,0,0-2.29608.531c.37726,2.21016.54852,3.3239.94257,5.51678Zm1.78186,10.50208a17.26059,17.26059,0,0,0,2.12426-.29112c2.50159-.41131,4.523-1.76456,4.07764-4.23156-.39374-2.34709-2.74109-2.94719-5.46521-2.46728-.73669.12019-1.13074.18851-1.86743.32571.46258,2.65549.68536,3.99175,1.13074,6.66425ZM253.16136,367.60941a13.72422,13.72422,0,0,0,2.00466.36c2.68978.27411,4.98588-.77075,5.277-3.47812.27411-2.70706-1.74785-4.0776-4.36876-4.35174-.78859-.06858-1.43913-.06858-2.10756-.06858-.32569,3.01578-.47961,4.52323-.80531,7.53846Zm117.87395.08587c-.13666,4.74549,2.00433,8.1207,5.70556,8.22388,3.75165.11966,5.9964-3.34119,6.099-7.984.10318-4.35147-1.83291-8.104-5.61941-8.20657-3.75226-.12018-6.0307,3.3063-6.18518,7.96673Zm85.30493,2.14188c-.65137-2.005-.99408-3.03278-1.645-5.03717-.46258-1.42215-.92523-3.20432-1.31949-4.60886h-.08535c-.32538,1.4216-.65137,3.255-1.01084,4.64285-.53146,2.0387-.8056,3.08414-1.33652,5.12281,2.1586-.0513,3.22074-.06864,5.39716-.11963Zm60.42755-2.51886c-.71969-1.98737-1.07968-2.98093-1.81644-4.96829-.51388-1.38785-1.06185-3.153-1.49044-4.55727h-.06833c-.29169,1.43915-.54849,3.28905-.85687,4.69417-.44562,2.07327-.68543,3.1011-1.14805,5.15707,2.15885-.12018,3.22132-.18851,5.38013-.32568Zm-182.89328-2.41571c-.23984,4.74579,1.83286,8.1723,5.53375,8.37808,3.73465.17151,6.048-3.2037,6.27054-7.86414.20581-4.33474-1.66168-8.12069-5.43121-8.3265-3.75189-.20552-6.099,3.1867-6.37308,7.81256Z"/><path class="cls-4" d="M297.74124,350.97345a14.66278,14.66278,0,0,1,7.67569-1.336c5.2594.35943,8.20657,3.22071,7.96677,6.71612-.20581,3.03223-2.39868,4.83138-5.277,5.328v.0686c2.99792.61682,5.51681,2.8613,5.277,6.082-.343,5.34586-5.97943,6.83634-10.554,6.49332a15.94441,15.94441,0,0,1-7.23-2.22717c.59924-1.662.9082-2.484,1.49042-4.09464a14.771,14.771,0,0,0,5.808,1.88443c2.79294.22284,4.59155-.83957,4.72873-2.827.18881-2.63849-2.60419-3.35794-4.90024-3.52942-.92465-.0683-1.40457-.11963-2.3298-.18823.11987-1.59336.18823-2.39838.30841-4.009.92523.08531,1.37082.11961,2.29608.18849,2.501.18851,4.45407-.788,4.59155-2.7244.11963-1.559-1.131-2.70709-3.46112-2.878a12.90565,12.90565,0,0,0-5.43091,1.02785c-.39425-1.59363-.59979-2.38137-.95953-3.975ZM350.44186,364.44c-.1885,6.92163-5.46548,12.507-12.62692,12.0614-7.14474-.44561-11.22183-6.0137-10.82809-12.86645.44561-7.16174,5.41418-12.26721,12.524-11.90778,7.41855.37729,11.10221,6.1682,10.931,12.71283Zm141.31192-11.89023c.0853,1.76459.13663,2.6558.20548,4.43737-3.6666.17148-5.49948.25682-9.16635.3943.27438,6.51031.51443,13.02066.78827,19.54828-2.20987.0856-3.32361.12018-5.53376.20578q-.43752-12.0016-.90823-23.98619c5.85922-.22281,8.78912-.32541,14.61459-.59954Zm116.48636-9.76591c.462,3.68391.68488,5.51678,1.13037,9.1831,3.59778-.445,5.41419-.66784,9.012-1.13044-.47962-3.66661-.68512-5.48249-1.18207-9.14882,2.19287-.27411,3.27209-.4113,5.431-.70242,1.06238,7.94947,2.10718,15.865,3.13507,23.81471-2.20984.27411-3.30628.41076-5.49921.70242-.51416-3.992-.77136-5.9794-1.28522-9.95442-3.615.44531-5.41357.66814-9.02862,1.13074.49664,3.97474.71936,5.96238,1.199,9.95414-2.19287.25681-3.28955.39432-5.49945.66816-.94256-7.94951-1.88476-15.91631-2.8443-23.84876,2.19288-.25709,3.25556-.3943,5.43146-.66841Zm53.64252,4.47194c1.1651,6.83572-2.91254,13.32907-10.0224,14.30591-7.12744.9765-12.23291-3.68363-13.19251-10.4851-.99353-7.12742,2.89533-13.08982,9.9198-14.13494,7.38465-1.07944,12.16468,3.8551,13.29511,10.31413Zm12.47272-13.58646a49.49344,49.49344,0,0,1,6.88769-1.64438c3.32385-.58281,5.41358-.56579,7.34961.11962a5.30349,5.30349,0,0,1,3.684,4.146c.34241,2.05625-.54852,4.23212-3.08411,5.72258v.06832a5.99126,5.99126,0,0,1,5.80817,4.93455,6.255,6.255,0,0,1-1.61066,5.49977c-1.50781,1.679-4.35174,2.96361-9.18316,3.786a45.421,45.421,0,0,1-6.01361.6341c-1.285-7.761-2.55262-15.488-3.83789-23.2665ZM170.80359,357.22693a18.43154,18.43154,0,0,1-6.37314.017c-6.973-1.01055-11.92484-6.95594-10.70819-13.99748,1.26825-7.24706,8.0867-11.58179,15.23138-10.34816a14.49361,14.49361,0,0,1,5.739,2.00437c-.7367,1.61065-1.07913,2.43326-1.81589,4.04334a11.68614,11.68614,0,0,0-4.42-1.61008c-4.28312-.68541-8.06968,1.302-8.94358,6.57894-.82232,4.72876,1.55933,8.18957,6.42472,8.99463a13.62153,13.62153,0,0,0,4.746-.03432c.05133,1.73025.05133,2.60417.11966,4.35173Zm51.79263-9.697c-2.58661-.32541-3.88913-.49692-6.51062-.82233.2401-1.81616.36029-2.74139.58281-4.54025,7.41884.95952,11.10217,1.43915,18.50372,2.29577-.20581,1.81617-.3087,2.72438-.53122,4.54026-2.63819-.30841-3.95773-.47991-6.59622-.80533q-1.18206,9.66264-2.38165,19.30878c-2.2099-.27411-3.30663-.41135-5.5168-.68543q1.2339-9.663,2.45-19.29147Zm31.62756-.89122c-.36,3.30691-.53092,4.96887-.89122,8.30977a20.025,20.025,0,0,1,2.9639.1026c5.22568.53094,9.4065,3.40951,8.892,8.72052a7.07549,7.07549,0,0,1-2.484,5.02014c-2.57019,2.1243-6.76744,2.3984-10.554,2.00467a42.04051,42.04051,0,0,1-5.94481-1.01111q1.31006-11.87238,2.62093-23.74584c2.15884.22281,3.2556.35944,5.39715.59925Zm133.37916,20.18269c-.017,6.92191-5.17438,12.60962-12.31855,12.35254-7.17871-.29114-11.376-5.739-11.11889-12.60938.23983-7.196,5.1055-12.4044,12.21533-12.18186,7.43558.18878,11.25641,5.894,11.22211,12.4387Zm34.91687,3.39221c-.1026-2.89529-.22278-6.37314-.22278-9.86853h-.06864c-.78772,3.06708-1.79913,6.47632-2.75839,9.30332-1.16473,3.73489-1.76453,5.61938-2.98117,9.35461-1.74728,0-2.60422,0-4.33444-.017-1.02786-3.7009-1.54178-5.551-2.57019-9.269-.77075-2.86127-1.54175-6.27078-2.12458-9.42322h-.06829c-.15393,3.238-.32544,6.939-.49695,9.93714-.20548,3.649-.32514,5.48251-.54794,9.11453-2.05622-.034-3.08411-.034-5.14032-.0513q.92559-12.0012,1.83343-23.98593c2.91263.034,4.36877.034,7.29837.05133.92523,3.221,1.38812,4.83163,2.33038,8.03537.77076,2.77542,1.47342,5.77389,2.03894,8.58386h.11991c.66812-2.75867,1.50744-5.9281,2.33008-8.60089,1.06216-3.18671,1.55877-4.79733,2.58718-7.98378,2.86075,0,4.2999,0,7.16117-.017.47964,8.01779.9595,16.00183,1.43915,24.00262-2.17591,0-3.23774,0-5.41361.03427-.15448-3.70059-.24008-5.51675-.41131-9.20038Zm26.62439,2.75867c-.65113,2.48431-.97651,3.71765-1.62763,6.20166-2.29608.03488-3.44354.03488-5.72256.08618,2.38165-8.05267,4.729-16.07077,7.02453-24.14073,2.87827-.034,4.30042-.06831,7.17874-.13661q4.03464,11.92419,8.20658,23.79742c-2.38169.06857-3.615.1026-6.01371.15393-.822-2.4497-1.21637-3.66635-2.03866-6.11606-2.7927.06833-4.18054.10263-7.00729.15421ZM509.76,370.69348c-.54819,2.50159-.8223,3.73523-1.40454,6.25354-2.26178.12018-3.40979.18848-5.70529.29111q3.10986-12.15555,6.099-24.36293c2.8613-.15392,4.28348-.23979,7.16178-.4113q4.49688,11.74474,9.1488,23.45526c-2.39837.1712-3.615.23984-6.03073.394-.8909-2.416-1.35351-3.6326-2.2612-6.0134-2.81.13663-4.19781.22223-7.00781.39371Zm27.01874-18.1607A15.22233,15.22233,0,0,1,544.18,350.0312c5.25965-.411,8.58362,1.93576,8.892,5.44817.25678,3.03282-1.62738,5.1398-4.38605,6.048v.08533c3.08411.17148,5.894,1.98792,6.15088,5.19165.46265,5.36228-4.86572,7.67566-9.44049,8.05207a15.93293,15.93293,0,0,1-7.48712-1.11316c.343-1.73053.51447-2.58716.85687-4.28345a14.82776,14.82776,0,0,0,6.0307.99359c2.7757-.22256,4.386-1.54178,4.23218-3.5119-.22284-2.63846-3.08411-2.93015-5.39722-2.74164-.92523.0686-1.38781.10318-2.3125.17151-.13745-1.61063-.18878-2.39841-.32605-4.02634.94233-.05133,1.40485-.08532,2.33045-.17151,2.46692-.18789,4.26617-1.43856,4.11163-3.37494-.13727-1.559-1.55932-2.50125-3.8891-2.32977a13.26074,13.26074,0,0,0-5.20837,1.84989c-.61658-1.50747-.92523-2.26119-1.55908-3.786Zm35.996-4.60857c.29108,2.82642.42834,4.24857.70245,7.09256.37726,3.83784.6341,7.62434.771,10.82808h.12012c1.01062-2.94663,2.33014-6.23648,3.5119-8.94331,1.696-3.975,2.55292-5.9451,4.23211-9.91985,2.22693-.23981,3.34095-.343,5.56812-.58281q1.31085,11.92462,2.60419,23.866c-2.02137.20578-3.04981.30869-5.08844.53147-.2912-2.81-.44562-4.23185-.71949-7.05912a95.38331,95.38331,0,0,1-.70275-10.09106h-.10224a64.39218,64.39218,0,0,1-3.25561,8.9436c-1.62763,3.64933-2.43268,5.46518-4.0777,9.11423-2.51831.22281-3.76947.36-6.27045.60013q-1.15659-11.9502-2.29608-23.90035c2.0047-.17149,2.99841-.27439,5.00287-.47961Zm-372.0396,4.934c-3.56372-.51393-5.36316-.771-8.9093-1.28492-.3427,2.26147-.49663,3.39219-.83961,5.65367,4.00932.58284,6.0137.85693,10.00573,1.42216-.23982,1.76458-.36,2.65551-.61682,4.40306-6.21948-.87362-9.3206-1.302-15.52223-2.24447q1.77351-11.87318,3.58072-23.72853c5.91052.87333,8.85742,1.30165,14.76849,2.124-.2398,1.76485-.36,2.65549-.60008,4.40334-3.76866-.51394-5.65343-.78832-9.42293-1.33654-.25682,1.98737-.42775,2.9639-.71943,4.95156,3.54641.49691,5.32827.754,8.87471,1.25064-.22281,1.76455-.34243,2.63849-.59925,4.386Zm443.72356-2.7068c.6684,4.6769,3.37518,7.64136,7.07556,7.10987,3.70117-.56524,5.29425-4.33475,4.5921-8.96061-.66809-4.28314-3.25531-7.64135-6.99054-7.07554-3.71759.54822-5.37957,4.30043-4.67712,8.92628Zm36.78436-8.30977c.70239-.11961,1.0791-.17093,1.7815-.30839,2.89563-.47963,4.2149-1.90177,3.88916-3.649-.30841-1.79913-1.86719-2.50185-4.29987-2.07324a14.741,14.741,0,0,0-2.296.51391c.35938,2.21045.54791,3.3239.92523,5.51677Zm1.7815,10.50264a15.01475,15.01475,0,0,0,2.12463-.30838c2.50122-.41133,4.52319-1.71327,4.0946-4.21484-.41125-2.36438-2.77508-2.92961-5.48254-2.467-.75366.11963-1.1134.18851-1.8847.32541.47967,2.65551.70245,4.00934,1.148,6.66481ZM252.09921,366.56454a16.49586,16.49586,0,0,0,2.00438.36c2.69035.27408,4.98586-.78863,5.26-3.46109.29112-2.74112-1.71326-4.09494-4.35175-4.36906a18.723,18.723,0,0,0-2.10756-.08532c-.32541,3.0152-.49692,4.52268-.805,7.55545Zm117.87421.08536c-.15448,4.729,2.02139,8.12122,5.72232,8.20655,3.73489.1202,5.97909-3.32334,6.08231-7.98377.10232-4.33447-1.85077-8.08639-5.6373-8.18957-3.73465-.11965-6.0134,3.28988-6.16733,7.96679Zm85.30411,2.14182c-.66813-2.02164-.9935-3.03247-1.64463-5.07141-.46264-1.40488-.92523-3.18647-1.319-4.5916h-.08621c-.3251,1.42213-.63351,3.2556-1.0278,4.64287-.514,2.05627-.78778,3.0841-1.319,5.12307,2.14157-.0343,3.22076-.06891,5.39661-.10293Zm60.44485-2.51856c-.71973-2.00467-1.1134-2.98123-1.83288-5.00284-.5145-1.38787-1.04541-3.15245-1.508-4.54029h-.06863c-.25681,1.43914-.53092,3.2899-.8393,4.69474-.46265,2.0557-.68515,3.10114-1.1478,5.17383,2.1586-.13666,3.22074-.18854,5.39661-.32544Zm-182.87573-2.41571c-.27466,4.746,1.78155,8.15531,5.49924,8.36112,3.75219.1882,6.06527-3.20432,6.27047-7.86417.20581-4.33447-1.66192-8.121-5.44787-8.32677-3.73523-.171-6.065,3.16941-6.32184,7.82982Z"/><path class="cls-4" d="M425.99734,98.932c224.35511,0,407.36829,49.42856,407.36829,110.04434,0,60.63309-183.01318,110.06164-407.36829,110.06164-224.38884,0-407.36749-49.42855-407.36749-110.06164C18.62985,148.3606,201.6085,98.932,425.99734,98.932Zm1.33655,230.48845c230.11145,0,417.80213-54.10544,417.80213-120.44411,0-66.33838-187.69068-120.42679-417.80213-120.42679-230.11116,0-417.80182,54.08841-417.80182,120.42679,0,66.33867,187.69066,120.44411,417.80182,120.44411Z"/><path class="cls-4" d="M199.3473,151.29019v16.20767H149.45642v19.463h24.61972c18.22963,0,32.31242,11.03353,32.31242,29.70819,0,18.55478-13.67205,28.80031-32.56922,28.80031H129.75363V151.29019ZM149.45642,229.279h22.27234c9.50914,0,14.99135-5.8598,14.99135-13.63775,0-8.29221-6.13336-12.45572-14.99135-12.45572H149.45642V229.279Zm133.05344-4.31747c-4.83136,16.73861-18.76053,22.34128-30.77036,22.34128-19.66847,0-34.91659-9.49183-34.91659-38.13788,0-8.44641,2.99791-35.31095,33.61435-35.31095,19.68576,0,32.8439,10.77652,32.8439,34.78v6.88733H235.70308c0,5.31131,1.19934,17.09857,16.03642,17.09857,5.22537,0,10.451-2.70733,11.87291-7.65835Zm-18.10941-21.399c-1.06187-11.15317-8.34379-14.64859-14.22029-14.64859-8.7205,0-13.415,5.56812-14.47708,14.64859Zm46.51566,41.90685V190.33606H290.06558V175.67017h60.0849v14.66589H329.283v55.13329Zm66.733-69.79918,11.83859,20.37118,11.61585-20.37118h21.75872l-23.06039,34.2655,23.84872,35.53368H400.84665l-12.147-21.00472-12.11329,21.00472H354.314l23.83173-35.53368-22.92407-34.2655Zm121.19757,34.77941c0,25.16852-16.9444,36.8362-35.70493,36.8362s-35.84182-11.5475-35.84182-36.716c0-25.16824,17.08126-36.71579,35.84182-36.71579s35.70493,11.41062,35.70493,36.59561Zm-52.64963,0c0,8.94385,2.7417,21.399,16.9447,21.399,14.20328,0,16.80744-12.30121,16.80744-21.27881,0-8.9433-2.60416-21.27887-16.80744-21.27887-14.203.01734-16.9447,12.19837-16.9447,21.15869Zm65.03671-34.77941h31.66132c15.62506,0,27.10431,6.37313,27.10431,18.04107,0,8.05213-5.72235,13.2265-13.038,15.04236,7.17823,1.696,15.128,6.23621,15.128,17.6471,0,12.9696-9.76532,19.06865-25.68194,19.06865H511.23373V175.67017Zm18.38349,28.28665h11.97589c6.1333,0,10.41675-2.46756,10.41675-7.91547,0-5.70529-4.16327-7.77856-10.27985-7.77856H529.61722v15.694Zm0,28.93719h13.53491c6.78442,0,10.948-2.09027,10.948-8.94333,0-6.11657-4.43769-8.96087-11.20508-8.96087H529.61722V232.894Zm117.25714-7.93249C642.077,241.70013,628.13077,247.3028,616.138,247.3028c-19.66827,0-34.91687-9.49183-34.91687-38.13788,0-8.44641,2.99847-35.31095,33.61493-35.31095,19.68573,0,32.84326,10.77652,32.84326,34.78v6.88733H600.1019c0,5.31131,1.19934,17.09857,16.03613,17.09857,5.20837,0,10.41705-2.70733,11.8562-7.65835ZM628.765,203.5625c-1.01056-11.15317-8.34381-14.64859-14.20306-14.64859-8.70343,0-13.39789,5.56812-14.46,14.64859Zm49.66809-1.79913h26.19611v-26.0932h18.36646v69.79918H704.62918V216.42926H678.43307v29.04009H660.04983V175.67017h18.38324v26.0932Z"/></svg>