<?xml version="1.0" encoding="utf-8"?>
<!-- Generator: Adobe Illustrator 25.4.1, SVG Export Plug-In . SVG Version: 6.00 Build 0)  -->
<svg version="1.1" id="Слой_1" xmlns="http://www.w3.org/2000/svg" xmlns:xlink="http://www.w3.org/1999/xlink" x="0px" y="0px"
	 viewBox="0 0 150.46 151.37" style="enable-background:new 0 0 150.46 151.37;" xml:space="preserve">
<style type="text/css">
	.st0{fill:#C2AEB4;}
	.st1{fill:#89646F;}
	.st2{fill:#681F37;}
	.st3{fill:#69233C;}
	.st4{fill:#733649;}
	.st5{fill:#B39CA4;}
	.st6{fill:#652435;}
	.st7{fill:#A99098;}
	.st8{fill:#581D2E;}
	.st9{fill:#89A35F;}
	.st10{fill:#7D8B48;}
	.st11{fill:#273A24;}
	.st12{fill:#4C5B2D;}
	.st13{fill:#484A2B;}
	.st14{fill:#8DAB43;}
	.st15{fill:#93B756;}
	.st16{fill:#A0A794;}
	.st17{fill:#262721;}
	.st18{fill:#94703B;}
	.st19{fill:#5F4233;}
	.st20{fill:#61703B;}
	.st21{fill:#A4C635;}
	.st22{fill:#AFCC48;}
	.st23{fill:#74A044;}
	.st24{fill:#B0CC55;}
	.st25{fill:#A9C463;}
	.st26{fill:#93B835;}
	.st27{fill:#9FC146;}
</style>
<g>
	<path class="st0" d="M71.58,5.41c1.22-1.8,2.44-3.61,3.66-5.41c0.6,0,1.21,0,1.81,0c0.3,0.54,0.6,1.07,0.89,1.61
		c0.8,1.24,1.6,2.47,2.4,3.71c-1.1,0.04-2.19,0.07-3.29,0.11c-0.13-0.07-0.25-0.13-0.38-0.2c0.12,0.07,0.24,0.14,0.36,0.22
		C75.21,6.82,73.38,7.82,71.58,5.41z"/>
	<path class="st1" d="M13.6,151.37c0-0.7,0-1.41,0-2.11c1.63-0.35,3.25-0.7,4.88-1.04c-0.11,1.05-0.23,2.1-0.34,3.15
		C16.62,151.37,15.11,151.37,13.6,151.37z"/>
	<path class="st2" d="M120.5,126.74c-9.91,2.42-19.81,4.89-29.73,7.26c-9.39,2.24-18.8,4.38-28.2,6.57
		c-1.55,0.13-3.1,0.26-4.65,0.38c-6.02-0.03-11.96-3.2-18.05-0.48c-0.91-1.15-1.83-2.3-2.74-3.45c4.65-0.98,9.33-1.84,13.92-3.02
		c1.21-0.31,2.16-1.65,3.23-2.52c0.95-1.21,1.89-2.42,2.84-3.63c0.61,0.01,1.22,0.03,1.83,0.05c0.59,0.87,1.18,1.74,1.77,2.61
		c1.82-0.24,3.63-0.47,5.45-0.71c1.5-0.1,3.03-0.05,4.5-0.31c12.74-2.27,25.49-4.55,38.21-6.95c1.55-0.29,2.97-1.31,4.45-1.99
		c-1.56-3.47-3.69-1.72-5.74-0.63c-0.37,0.27-0.75,0.54-1.12,0.81c-5.37,0.41-10.74,0.82-16.11,1.23c-0.04-0.4-0.08-0.81-0.12-1.21
		c6.43-1.28,12.96-2.22,19.26-3.98c2.77-0.77,6.85-0.72,7.44-5.12c0.31,0.01,0.62,0.03,0.92,0.04c2.04,2.32,3.73,2.94,4.51-0.92
		c1.8,0.82,3.59,1.64,5.39,2.47c-0.85,0.64-1.7,1.29-2.55,1.93c-0.95,0-1.9,0-4.13,0c1.59,0.62,1.95,0.76,2.31,0.9
		c-0.67,0.62-1.34,1.23-2.01,1.85c0.14,0.33,0.27,0.65,0.41,0.98c1.65-0.46,3.3-0.92,4.95-1.38c1.3,0.81,2.61,1.61,3.91,2.42
		c-0.2,0.39-0.4,0.79-0.59,1.18c-0.9-0.24-1.8-0.48-1.61-0.43c-2.02,1.6-3.45,2.76-4.91,3.88
		C122.54,125.31,121.51,126.02,120.5,126.74z M119.5,117.94c-0.01-0.4-0.02-0.79-0.03-1.19c-1.16,0.12-2.32,0.23-3.48,0.35
		c0,0.21,0,0.41,0,0.62C117.16,117.8,118.33,117.87,119.5,117.94z"/>
	<path class="st0" d="M126.73,117.51c-1.65,0.46-3.3,0.92-4.95,1.38c-0.14-0.33-0.27-0.65-0.41-0.98c0.67-0.62,1.34-1.23,2.01-1.85
		c0.61-0.3,1.21-0.6,1.82-0.9c0.85-0.64,1.7-1.29,2.55-1.93c7.98,0.24,10.55-3.19,7.55-10.08c-4.16-8.99-8.32-17.98-12.48-26.97
		c2.84-2.97,3.26,0.44,3.92,1.73c4.26,8.3,8.32,16.7,12.5,25.04c0.68,1.36,1.67,2.58,3.04,4.66c0.55-2.17,0.83-3.27,1.1-4.36
		c3.61,2.47,6.24,8.61,5.15,11.98c-0.97,2.97-8.3,7.25-11.83,6.92c0.83-0.71,1.59-1.52,2.5-2.09c0.73-0.45,1.65-0.59,2.48-0.86
		c-0.39-1.08-0.78-2.16-1.17-3.24c-1.57-3.79-3.85-0.5-5.79-0.57C132.06,116.09,129.39,116.8,126.73,117.51z"/>
	<path class="st3" d="M96.4,19.97c4.37,7.08,8.81,14.12,13.08,21.26c2.52,4.21,4.82,8.56,7.08,12.92c0.74,1.43,1.08,3.07,1.6,4.62
		c0.2,0.34,0.4,0.69,0.59,1.03c0.14,0.24,0.22,0.5,0.25,0.77c-0.2,0.56-0.41,1.11-0.7,1.91c-0.55-0.68-1.06-1.17-1.43-1.76
		c-6.02-9.67-12.03-19.34-18.04-29.02c-0.86-1.37-1.81-2.7-2.56-4.12c-1.97-3.72-3.86-7.47-5.79-11.22c1.6,0.57,3.21,1.13,4.81,1.7
		c0,0-0.03-0.04-0.03-0.04C95.64,18.67,96.02,19.32,96.4,19.97z"/>
	<path class="st4" d="M143.38,103.24c-0.28,1.09-0.55,2.18-1.1,4.36c-1.37-2.08-2.36-3.29-3.04-4.66
		c-4.18-8.34-8.24-16.74-12.5-25.04c-0.66-1.29-1.08-4.7-3.92-1.73c-0.16-1.14-0.33-2.28-0.5-3.42c-0.56-1.95-1.25-3.88-1.61-5.86
		c-0.14-0.78,0.48-1.69,0.75-2.54c0.96,1.17,1.93,2.34,2.89,3.52c0.24,0.35,0.48,0.7,0.72,1.04c2.28,3.12,4.55,6.24,6.84,9.34
		c1.12,1.52,2.44,2.92,3.4,4.53c0.88,1.48,1.42,3.17,2.05,4.79C139.37,92.79,141.37,98.01,143.38,103.24z"/>
	<path class="st5" d="M121.46,64.35c-0.27,0.85-0.89,1.76-0.75,2.54c0.36,1.99,1.05,3.91,1.61,5.86c-0.84-0.4-1.69-0.8-2.53-1.2
		c-0.3-0.61-0.59-1.23-0.89-1.84c-0.32-0.59-0.64-1.19-0.97-1.78c-6.99-10.84-13.98-21.68-20.97-32.53c0.62-1.23,1.24-2.46,1.87-3.7
		c6.01,9.67,12.02,19.35,18.04,29.02c0.37,0.59,0.88,1.09,1.43,1.76c0.29-0.8,0.5-1.36,0.7-1.91
		C119.82,61.83,120.64,63.09,121.46,64.35z"/>
	<path class="st6" d="M39.87,140.48c6.09-2.71,12.03,0.45,18.05,0.48c-2.66,0.55-5.33,1.09-7.99,1.64
		c-1.58-0.66-3.16-1.32-4.74-1.99c-0.11,0.4-0.23,0.81-0.34,1.21c1.59,0.27,3.17,0.54,4.76,0.81c-2.45,0.55-4.89,1.14-7.35,1.63
		c-2.9,0.57-5.82,1.06-8.73,1.58c-0.61,0.02-1.21,0.04-1.82,0.06c-0.59-0.11-1.18-0.23-1.77-0.34c-0.95-0.48-1.84-1.13-2.85-1.4
		c-3.57-0.96-7.17-1.79-10.76-2.67c4.17-0.67,8.34-1.33,12.51-2C32.24,142.89,36.24,139.6,39.87,140.48z"/>
	<path class="st4" d="M95.29,18.06c-1.6-0.57-3.21-1.13-4.81-1.7c-1.28-0.83-2.85-1.42-3.79-2.53c-2.27-2.7-4.25-5.66-6.35-8.51
		c-0.8-1.24-1.6-2.47-2.4-3.71c6.61-0.95,10.24,3.76,13.79,7.87C93.65,11.71,94.15,15.16,95.29,18.06z"/>
	<path class="st1" d="M140.52,115.95c0.39,1.08,0.78,2.16,1.17,3.24c-0.84,0.28-1.75,0.41-2.48,0.86c-0.92,0.56-1.67,1.38-2.5,2.09
		c-5.4,1.54-10.8,3.07-16.2,4.61c1.01-0.73,2.04-1.43,3.02-2.19c1.46-1.12,2.89-2.28,4.91-3.88c-0.19-0.05,0.71,0.19,1.61,0.43
		c0.2-0.39,0.4-0.79,0.59-1.18c-1.3-0.81-2.61-1.61-3.91-2.42c2.67-0.71,5.33-1.43,8-2.14
		C136.66,115.56,138.59,115.75,140.52,115.95z"/>
	<path class="st4" d="M96.4,19.97c-0.38-0.65-0.76-1.3-1.13-1.95C95.64,18.67,96.02,19.32,96.4,19.97z"/>
	<path class="st5" d="M118.75,59.8c-0.2-0.34-0.4-0.69-0.59-1.03C118.36,59.11,118.55,59.46,118.75,59.8z"/>
	<path class="st5" d="M125.06,68.91c-0.24-0.35-0.48-0.7-0.72-1.04C124.59,68.21,124.82,68.56,125.06,68.91z"/>
	<path class="st3" d="M16.33,141.49c3.59,0.88,7.2,1.71,10.76,2.67c1,0.27,1.9,0.93,2.85,1.4c-2.42,0.44-4.84,0.88-7.26,1.31
		c-0.8-0.88-1.6-1.75-2.4-2.63c-0.09,0.87-0.17,1.75-0.26,2.62c-0.02,0.39-0.04,0.78-0.06,1.17c-0.49,0.06-0.98,0.12-1.48,0.18
		c-1.62,0.35-3.25,0.7-4.87,1.04c-2.41,0.06-4.82,0.11-7.23,0.17c-0.91-0.26-1.81-0.52-2.72-0.78c-0.31-0.3-0.62-0.6-0.94-0.9
		c-0.16-1.08-0.32-2.15-0.48-3.23c0.24-0.42,0.48-0.84,0.72-1.26c0.18-0.38,0.37-0.75,0.55-1.13c4.9-9.9,9.78-19.81,14.7-29.7
		c3.08-6.2,7.04-12.12,9.15-18.63c4.46-13.74,13.63-24.89,19.52-37.76c4.49-9.81,7.74-20.19,12-30.12
		c2.53-5.89,5.93-11.41,8.94-17.09c2.13,0,3.02,0.7,2.08,2.99c-2.12,5.15-3.84,10.47-6.17,15.52C57.04,41.8,50.12,56.16,43.29,70.56
		c-7.56,16.55-15.12,33.1-22.68,49.65c-2.63,4.62-5.39,9.17-7.8,13.89c-0.81,1.59-0.75,3.62-1.09,5.45
		c0.56,0.89,0.93,2.18,1.72,2.54C14.16,142.43,15.35,141.73,16.33,141.49z"/>
	<path class="st7" d="M43.29,70.56c6.83-14.4,13.74-28.76,20.44-43.23c2.33-5.04,4.05-10.37,6.17-15.52
		c0.94-2.29,0.05-2.99-2.08-2.99c1.25-1.14,2.51-2.27,3.76-3.41c1.81,2.41,3.63,1.41,5.46,0.03l0.01-0.01
		c1.1-0.04,2.19-0.07,3.29-0.11c2.1,2.85,4.08,5.8,6.35,8.51c0.94,1.12,2.51,1.7,3.79,2.53c1.92,3.74,3.81,7.5,5.79,11.22
		c0.76,1.43,1.7,2.75,2.56,4.12c-0.62,1.23-1.24,2.46-1.87,3.7c-0.45-0.25-0.9-0.5-1.34-0.75c-1.3-2.34-2.41-4.81-3.92-7.01
		c-4.77-6.95-9.69-13.81-15.07-21.43c-1.35,2.8-2.24,4.52-3.03,6.28c-3.5,7.82-6.81,15.73-10.48,23.48
		C57.9,46.98,52.44,57.87,47.07,68.8c-0.87,1.28-1.73,2.55-2.6,3.83C44.08,71.94,43.69,71.25,43.29,70.56z"/>
	<path class="st1" d="M2.23,144.52c0.16,1.08,0.32,2.15,0.48,3.23c-0.52-0.82-1.03-1.65-1.55-2.47
		C1.52,145.02,1.87,144.77,2.23,144.52z"/>
	<path class="st1" d="M3.5,142.12c-0.18,0.38-0.37,0.75-0.55,1.13C3.13,142.88,3.31,142.5,3.5,142.12z"/>
	<path class="st6" d="M20.01,146.87c0.09-0.87,0.17-1.75,0.26-2.62c0.8,0.88,1.6,1.75,2.4,2.63c-0.21,0.15-0.44,0.21-0.7,0.18
		C21.32,146.99,20.66,146.93,20.01,146.87z"/>
	<path class="st1" d="M20.01,146.87c0.66,0.06,1.31,0.12,1.97,0.18c-0.68,0.33-1.35,0.66-2.03,0.98
		C19.96,147.65,19.99,147.26,20.01,146.87z"/>
	<path class="st7" d="M77.04,5.44c-0.12-0.07-0.24-0.14-0.36-0.22c0.13,0.07,0.25,0.13,0.38,0.2C77.05,5.43,77.04,5.44,77.04,5.44z"
		/>
	<path class="st1" d="M3.64,148.65c0.91,0.26,1.81,0.52,2.72,0.78C5.46,149.17,4.55,148.91,3.64,148.65z"/>
	<path class="st8" d="M57.12,127.85c-0.95,1.21-1.89,2.42-2.84,3.63c-6,0.89-12.01,1.78-18.01,2.67c-2.95,0.64-5.9,1.28-8.85,1.91
		c-1.01-0.65-1.94-1.48-3.03-1.91c-4.16-1.62-3.77-2.89-1.24-6.6c2.66-3.92,6.45-8.57,4.01-14.36c1.25-3.28,2.51-6.56,3.76-9.84
		c1.43-0.33,2.86-0.66,4.3-0.98c0.02,1.25,0.04,2.51,0.06,3.76c-0.01,0.5-0.02,1.01-0.03,1.51c-0.57,0.71-1.13,1.41-1.7,2.12
		c-1.24,3.55-2.48,7.09-3.72,10.64c-0.84,1.27-1.68,2.55-2.51,3.82c-0.04,0.58-0.08,1.17-0.12,1.75c-0.06,0.28-0.08,0.56-0.06,0.85
		c-0.31,0.9-0.62,1.8-0.93,2.69c-0.16,0.61-0.32,1.23-0.49,1.84c2.93-0.36,5.86-0.73,8.78-1.09c3.26-0.24,6.52-0.47,9.78-0.71
		C48.55,128.99,52.83,128.42,57.12,127.85z"/>
	<path class="st6" d="M116.92,111.64c-0.59,4.39-4.66,4.34-7.44,5.12c-6.3,1.76-12.82,2.71-19.26,3.98c0.04,0.4,0.08,0.81,0.12,1.21
		c5.37-0.41,10.74-0.82,16.11-1.23c-12.8,2.1-25.59,4.21-38.39,6.31c-1.6-0.37-3.19-0.75-4.79-1.12c0.5-0.5,0.94-1.33,1.51-1.43
		c4.08-0.76,8.24-1.13,12.26-2.11c3.42-0.84,6.69-2.34,10.02-3.55c0.3-0.1,0.59-0.19,0.89-0.29c2.92-0.48,5.9-0.74,8.76-1.48
		c5.27-1.35,10.46-2.99,15.69-4.5c1.21-0.34,2.42-0.67,3.63-1.01C116.35,111.51,116.64,111.55,116.92,111.64z"/>
	<path class="st5" d="M68.07,127.03c12.8-2.1,25.59-4.21,38.39-6.31c0.38-0.27,0.75-0.54,1.13-0.81c0,0,0.41,0.11,0.41,0.11
		l0.29-0.3c1.04,0.18,2.07,0.36,3.11,0.54c0.64,0.09,1.29,0.19,1.93,0.28c-1.48,0.68-2.9,1.7-4.45,1.99
		c-12.72,2.4-25.46,4.68-38.21,6.95c-1.47,0.26-3,0.21-4.5,0.31c-0.34-0.05-0.68-0.11-1.03-0.16
		C66.12,128.77,67.09,127.9,68.07,127.03z"/>
	<path class="st1" d="M135.29,103.14c3,6.89,0.44,10.32-7.55,10.08c-1.8-0.82-3.59-1.64-5.39-2.47c-0.34-0.07-0.68-0.14-1.01-0.21
		c0.06-0.53,0.11-1.05,0.17-1.58c7.39-0.51,7.92-1.04,6.15-6.27c1.22,0.59,2.42,1.6,3.68,1.66
		C132.64,104.43,133.98,103.59,135.29,103.14z"/>
	<path class="st5" d="M36.27,134.16c6-0.89,12.01-1.78,18.01-2.67c-1.07,0.87-2.02,2.2-3.23,2.52c-4.59,1.19-9.27,2.04-13.92,3.02
		c0,0,0.07-0.35,0.07-0.35C36.89,135.84,36.58,135,36.27,134.16z"/>
	<path class="st6" d="M65.14,129.64c0.34,0.05,0.68,0.11,1.03,0.16c-1.82,0.24-3.63,0.47-5.45,0.71c-0.59-0.87-1.18-1.74-1.77-2.61
		c-0.61-0.02-1.22-0.03-1.83-0.05c-4.28,0.57-8.56,1.14-12.84,1.71c5.51-1.15,11.01-2.29,16.52-3.44
		C62.24,127.29,63.69,128.46,65.14,129.64z"/>
	<path class="st9" d="M121.52,108.97c-0.06,0.53-0.11,1.05-0.17,1.58c-1.17,0.38-2.33,0.76-3.5,1.13c-0.31-0.01-0.62-0.03-0.92-0.04
		c-0.29-0.09-0.58-0.13-0.88-0.1c0.64-3.91-2.07-3.76-4.61-3.81c2.72-0.87,5.45-1.73,8.17-2.6
		C120.24,106.41,120.88,107.69,121.52,108.97z"/>
	<path class="st3" d="M39.87,140.48c-3.63-0.87-7.63,2.41-11.03-0.98c2.79-0.94,5.57-1.88,8.36-2.82c0,0-0.07,0.35-0.07,0.35
		C38.04,138.17,38.95,139.33,39.87,140.48z"/>
	<path class="st6" d="M117.85,111.68c1.17-0.38,2.33-0.76,3.5-1.13c0.34,0.07,0.68,0.14,1.01,0.21
		C121.58,114.62,119.89,113.99,117.85,111.68z"/>
	<path class="st6" d="M108.29,119.72l-0.29,0.3c0,0-0.41-0.11-0.41-0.11c2.05-1.1,4.18-2.84,5.74,0.63
		c-0.64-0.09-1.29-0.19-1.93-0.28C110.36,120.08,109.33,119.9,108.29,119.72z"/>
	<path class="st6" d="M119.5,117.94c-1.17-0.07-2.34-0.15-3.51-0.22c0-0.21,0-0.41,0-0.62c1.16-0.12,2.32-0.23,3.48-0.35
		C119.48,117.15,119.49,117.55,119.5,117.94z"/>
	<path class="st8" d="M58.95,127.9c0.59,0.87,1.18,1.74,1.77,2.61C60.13,129.63,59.54,128.77,58.95,127.9z"/>
	<path class="st6" d="M125.2,115.16c-0.61,0.3-1.21,0.6-1.82,0.9c-0.36-0.14-0.72-0.28-2.31-0.9
		C123.3,115.16,124.25,115.16,125.2,115.16z"/>
	<path class="st2" d="M135.29,103.14c-1.32,0.44-2.66,1.29-3.95,1.22c-1.25-0.07-2.45-1.07-3.67-1.67c-0.1-0.2-0.05-0.37,0.14-0.49
		c-0.04-6.52-1.37-8.62-6.29-9.95c-0.64-1.75-1.29-3.5-1.93-5.25c-1.79-3.62-3.58-7.25-5.37-10.87c1.45-2.39,1.1-4.06-1.88-4.65
		c-0.03-0.54-0.07-1.08-0.1-1.62c0.7-1.69,1.41-3.37,1.95-4.66c1.23,0.9,2.49,1.82,3.75,2.73c0.32,0.59,0.64,1.19,0.97,1.78
		c0.3,0.61,0.59,1.23,0.89,1.84c0.84,0.4,1.69,0.8,2.53,1.2c0.17,1.14,0.33,2.28,0.5,3.42C126.98,85.16,131.14,94.15,135.29,103.14z
		"/>
	<path class="st5" d="M140.52,115.95c-1.93-0.19-3.86-0.38-5.79-0.58C136.67,115.45,138.94,112.16,140.52,115.95z"/>
	<path class="st6" d="M117.93,67.93c-1.26-0.92-2.52-1.83-3.75-2.73c-0.54,1.29-1.24,2.98-1.95,4.66c-0.28-0.57-0.55-1.15-0.83-1.72
		c-3.34-6.44-6.67-12.89-10.06-19.3c-0.22-0.42-0.98-0.56-1.49-0.83c-0.1-0.52-0.2-1.03-0.3-1.55c-1.53-2.46-3.06-4.92-4.59-7.37
		c-0.26-0.91-0.52-1.82-0.79-2.73c0.48-0.56,0.97-1.13,1.45-1.69c0.45,0.25,0.9,0.5,1.34,0.75
		C103.95,46.24,110.94,57.09,117.93,67.93z"/>
	<path class="st6" d="M119.79,71.55c-0.3-0.61-0.59-1.23-0.89-1.84C119.2,70.32,119.49,70.94,119.79,71.55z"/>
	<path class="st0" d="M37.2,136.67c-2.79,0.94-5.57,1.88-8.36,2.82c-4.17,0.67-8.34,1.33-12.51,2c-0.98,0.24-2.16,0.94-2.88,0.61
		c-0.8-0.36-1.17-1.66-1.72-2.54c1.24-0.25,2.48-0.51,3.72-0.76c3.99-0.91,7.98-1.82,11.97-2.73c2.95-0.64,5.9-1.28,8.85-1.91
		C36.58,135,36.89,135.84,37.2,136.67z"/>
	<path class="st2" d="M49.92,142.6c0,0-0.33,0.03-0.33,0.03c-1.58-0.27-3.17-0.54-4.75-0.8c0.11-0.4,0.23-0.81,0.34-1.21
		C46.77,141.27,48.35,141.94,49.92,142.6z"/>
	<path class="st5" d="M30.91,103.37c-1.25,3.28-2.51,6.56-3.76,9.84c-1.79,3.1-3.57,6.2-5.36,9.29c-0.4-0.76-0.79-1.52-1.19-2.28
		c7.56-16.55,15.12-33.1,22.68-49.65c0.39,0.69,0.79,1.38,1.18,2.07C39.95,82.88,35.43,93.12,30.91,103.37z"/>
	<path class="st7" d="M20.61,120.21c0.4,0.76,0.79,1.52,1.18,2.28c-2.19,4.58-4.43,9.14-6.52,13.77c-0.31,0.68,0.09,1.68,0.16,2.53
		c-1.24,0.25-2.48,0.51-3.72,0.76c0.34-1.83,0.28-3.86,1.09-5.45C15.23,129.38,17.99,124.83,20.61,120.21z"/>
	<path class="st8" d="M95.62,34.65c-0.48,0.56-0.97,1.13-1.45,1.69c0,0,0.04-0.02,0.04-0.02c-0.29-0.63-0.58-1.27-0.88-1.9
		c-2.69-4.14-5.34-8.31-8.11-12.39c-0.24-0.35-1.25-0.18-1.9-0.25c-1.14-0.86-2.28-1.71-3.42-2.57c-1.06,0.72-2.55,1.2-3.12,2.2
		c-3.26,5.7-6.33,11.52-9.42,17.32c-2.27,4.28-4.47,8.6-6.7,12.9c-1.82,3.63-3.63,7.26-5.45,10.89c-1.81,3.04-3.61,6.08-5.42,9.12
		c-0.3,0.9-0.6,1.8-0.9,2.69c0.02-1.51,0.04-3.02,0.05-4.54c0.07-0.13,0.13-0.25,0.2-0.38c-0.07,0.12-0.14,0.25-0.21,0.37
		c-0.62-0.33-1.24-0.66-1.87-0.98c5.36-10.94,10.83-21.83,16.05-32.83c3.67-7.74,6.99-15.65,10.48-23.48
		c0.79-1.76,1.67-3.49,3.03-6.28c5.38,7.63,10.3,14.48,15.07,21.43C93.21,29.84,94.33,32.31,95.62,34.65z"/>
	<path class="st6" d="M47.07,68.8c0.62,0.33,1.24,0.66,1.87,0.98c0,0,0.01,0.01,0.01,0.01c-0.02,1.51-0.04,3.02-0.05,4.54
		c0.05,0.57,0.11,1.15,0.16,1.72c-1.5,3.31-3,6.62-4.5,9.93c-6.75,1.26-0.05,3.87-0.55,5.75c-4.88-0.17-5.38,0.25-6.88,5.23
		c-0.47,1.56-1.19,3.05-1.79,4.57c-0.02,0.28-0.07,0.56-0.14,0.84c-1.43,0.33-2.86,0.66-4.3,0.98c4.52-10.25,9.04-20.49,13.56-30.74
		C45.34,71.35,46.21,70.08,47.07,68.8z"/>
	<path class="st10" d="M60.79,126.12c-5.51,1.15-11.01,2.29-16.52,3.44c-3.26,0.24-6.52,0.47-9.78,0.71
		c-0.28-1.11-0.55-2.21-0.83-3.32c1.51-3.89,3.01-7.78,4.52-11.67c0,0,0.05-0.07,0.05-0.07c1.2-1.81,2.39-3.62,3.59-5.43
		c0.59-0.91,1.19-1.82,1.78-2.73c0.32-0.29,0.63-0.58,0.95-0.87c2.38,0.48,4.77,0.95,7.15,1.43c-1.08,2.24-2.48,3.56-5.23,2.35
		c-0.41-0.18-1.39,0.89-2.1,1.39c-0.62,1.24-1.24,2.49-1.85,3.73c-1.35,2.2-3.04,4.26-3.95,6.63c-0.64,1.65-0.21,3.71-0.25,5.59
		c2.01-0.45,4.03-0.9,6.04-1.35c5.19-0.49,10.39-0.98,16.16-1.52c-0.97-1.18-1.32-1.62-1.68-2.06c0.58-0.06,1.16-0.11,1.74-0.17
		c1.86,0.1,3.77,0.53,5.58,0.25c6.99-1.09,13.95-2.41,20.92-3.64c-3.33,1.21-6.6,2.71-10.02,3.55c-4.02,0.99-8.18,1.35-12.26,2.11
		c-0.57,0.11-1.01,0.94-1.51,1.43C62.45,125.98,61.62,126.05,60.79,126.12z"/>
	<path class="st11" d="M51.7,107.61c-2.38-0.48-4.77-0.95-7.15-1.43c-0.32,0.29-0.63,0.58-0.95,0.88c-0.59,0.91-1.19,1.82-1.78,2.73
		c-4.24-0.2-2.68,3.43-3.59,5.43c0,0-0.05,0.07-0.05,0.07c-3.16-1.12-1.53-3.5-1.59-5.53c-0.03-1.21-0.86-2.4-1.32-3.61
		c-0.02-1.25-0.04-2.51-0.06-3.76c0.07-0.28,0.11-0.56,0.14-0.84c1.33,0.55,2.76,0.95,3.98,1.68c2.83,1.68,9.23,1.63,10.06-0.6
		c1.92-5.17,7.02-5.13,10.75-7.31c-0.08,1.16-0.16,2.32-0.24,3.47C59.77,106.65,59.47,106.97,51.7,107.61z"/>
	<path class="st2" d="M15.44,138.79c-0.07-0.85-0.47-1.85-0.16-2.53c2.09-4.63,4.33-9.19,6.52-13.77c1.79-3.1,3.57-6.2,5.36-9.29
		c2.44,5.79-1.34,10.44-4.01,14.36c-2.53,3.71-2.92,4.98,1.24,6.6c1.09,0.43,2.02,1.26,3.03,1.91
		C23.42,136.98,19.43,137.89,15.44,138.79z"/>
	<path class="st12" d="M35.27,106.15c0.47,1.2,1.29,2.39,1.32,3.61c0.06,2.03-1.57,4.41,1.59,5.53c-1.5,3.89-3.01,7.78-4.52,11.67
		c-1.76-3-4.29-0.87-6.48-0.97c0.04-0.58,0.08-1.17,0.12-1.75c0.84-1.27,1.68-2.55,2.52-3.82c1.24-3.55,2.48-7.09,3.72-10.64
		c0.57-0.71,1.13-1.41,1.7-2.12C35.24,107.15,35.26,106.65,35.27,106.15z"/>
	<path class="st13" d="M27.18,125.99c2.19,0.1,4.72-2.04,6.48,0.97c0.28,1.11,0.55,2.21,0.83,3.32c-2.93,0.36-5.85,0.73-8.78,1.09
		c0.16-0.61,0.32-1.23,0.49-1.84c0.55-0.14,1.1-0.28,1.64-0.42c-0.24-0.76-0.48-1.52-0.72-2.28
		C27.09,126.55,27.11,126.26,27.18,125.99z"/>
	<path class="st13" d="M29.81,120.41c-0.84,1.27-1.68,2.55-2.52,3.82C28.14,122.96,28.97,121.69,29.81,120.41z"/>
	<path class="st12" d="M27.12,126.83c0.24,0.76,0.48,1.52,0.72,2.28c-0.55,0.14-1.1,0.28-1.64,0.42
		C26.5,128.63,26.81,127.73,27.12,126.83z"/>
	<path class="st11" d="M35.23,107.66c-0.57,0.71-1.13,1.41-1.7,2.12C34.1,109.07,34.67,108.36,35.23,107.66z"/>
	<path class="st14" d="M87.08,118.82c-6.97,1.23-13.93,2.55-20.92,3.64c-1.8,0.28-3.71-0.15-5.58-0.25
		c1.86-0.88,3.73-1.75,5.59-2.63c3.04-1.17,6.07-2.34,9.11-3.51c2.4-0.04,4.79-0.08,7.19-0.12c2.42-0.26,4.84-0.53,7.27-0.79
		c0.31,0.6,0.63,1.19,0.94,1.79c-0.9,0.53-1.81,1.06-2.71,1.58C87.67,118.62,87.37,118.72,87.08,118.82z"/>
	<path class="st10" d="M87.97,118.53c0.9-0.53,1.81-1.06,2.71-1.58c3.02-1.19,6.05-2.38,9.07-3.57c3.08-0.56,6.15-1.12,9.23-1.69
		c1.15,0.29,2.29,0.58,3.44,0.86c-5.23,1.52-10.42,3.15-15.69,4.5C93.87,117.78,90.89,118.05,87.97,118.53z"/>
	<path class="st15" d="M112.42,112.55c-1.15-0.29-2.29-0.58-3.44-0.87c-1.01-0.13-2.03-0.26-3.97-0.51c2.65-1.4,4.54-2.39,6.43-3.39
		l-0.01-0.05c2.55,0.05,5.26-0.1,4.61,3.81C114.84,111.88,113.63,112.21,112.42,112.55z"/>
	<path class="st2" d="M60.79,126.12c0.83-0.07,1.66-0.14,2.49-0.21c1.59,0.37,3.19,0.75,4.79,1.12c-0.97,0.87-1.95,1.74-2.92,2.6
		C63.69,128.46,62.24,127.29,60.79,126.12z"/>
	<path class="st2" d="M108.29,119.72c1.04,0.18,2.07,0.36,3.11,0.54C110.36,120.08,109.33,119.9,108.29,119.72z"/>
	<path class="st16" d="M121.52,108.97c-0.64-1.28-1.27-2.56-1.91-3.83c0.94-0.39,1.88-0.79,2.82-1.18c0.59-0.33,1.18-0.66,1.77-0.98
		c1.2-0.25,2.4-0.51,3.61-0.76c-0.19,0.12-0.23,0.29-0.14,0.49C129.43,107.92,128.9,108.46,121.52,108.97z"/>
	<path class="st11" d="M122.43,103.95c-0.94,0.39-1.88,0.79-2.83,1.18c-2.72,0.87-5.45,1.73-8.17,2.6c0,0,0.01,0.05,0.01,0.05
		c-5.45,0.08-10.9,0.17-16.35,0.25c-0.22-0.18-0.47-0.26-0.76-0.24c0,0-0.02-0.01-0.02,0c-0.59-0.58-1.18-1.17-1.78-1.75
		c-0.3-0.34-0.61-0.68-0.91-1.02l0.1-0.07c0.04-1.68,0.08-3.37,0.12-5.05c0.32-0.88,0.63-1.76,0.95-2.64c0.75-0.4,1.51-0.8,2.26-1.2
		c4.67,0.92,9.3,2.11,14.01,2.66c3.72,0.44,7.53,0.13,11.3,0.07c2.28-0.04,3.89,0.56,3.84,3.22
		C123.62,102.65,123.02,103.3,122.43,103.95z"/>
	<path class="st17" d="M124.21,102.01c0.05-2.66-1.56-3.26-3.84-3.22c-3.77,0.06-7.58,0.37-11.3-0.07
		c-4.71-0.55-9.34-1.74-14.01-2.66c-4.1-3.2-2.71-7.57-2.48-11.69c2.66-2.16,5.32-4.31,7.98-6.47c3.92-2.14,7.85-4.27,11.77-6.41
		c2.99,0.6,3.33,2.26,1.88,4.65c-5.35,3.35-11.97,4.9-15.48,10.87c-3.56,2.88,1.85,3.25,1.46,5.25c1.28,0,2.56,0,4.4,0
		c3.3,3.86,8.39,4.02,16.92,0c4.92,1.33,6.25,3.43,6.29,9.95c-1.2,0.25-2.4,0.51-3.61,0.77
		C124.21,102.65,124.21,102.33,124.21,102.01z"/>
	<path class="st18" d="M98.73,87c3.51-5.97,10.13-7.52,15.48-10.87c1.79,3.62,3.58,7.25,5.37,10.87C112.64,87,105.69,87,98.73,87z"
		/>
	<path class="st19" d="M98.73,87c6.95,0,13.9,0,20.85,0.01c0.64,1.75,1.28,3.5,1.93,5.25c-8.53,4.01-13.62,3.85-16.92-0.01
		c-1.84,0-3.12,0-4.4,0C100.58,90.25,95.18,89.88,98.73,87z"/>
	<path class="st20" d="M112.33,71.48c-3.92,2.14-7.85,4.27-11.77,6.41c-0.01-0.3-0.03-0.59-0.03-0.89c2.17-2.43,4.33-4.86,6.5-7.3
		c0.44-0.58,0.89-1.17,1.33-1.75c1.01,0.06,2.03,0.12,3.04,0.18c0.28,0.57,0.56,1.15,0.83,1.72
		C112.27,70.4,112.3,70.94,112.33,71.48z"/>
	<path class="st10" d="M99.55,46.45c0.1,0.52,0.2,1.03,0.3,1.55c0.91,2.99,1.82,5.97,2.73,8.96c-1.79-2.39-3.59-4.78-5.39-7.17
		c-0.08-0.29-0.16-0.59-0.24-0.88c-0.29-0.29-0.58-0.58-0.87-0.87l-0.01-0.01c-0.91-1.81-1.82-3.63-2.72-5.44
		c-0.56-1.53-1.23-3.03-1.65-4.6c-0.23-0.85-0.04-1.8-0.04-2.71c0.29,0,0.58-0.01,0.86-0.04c0.56,0.37,1.12,0.73,1.69,1.1
		c0,0-0.04,0.02-0.04,0.02c0.26,0.91,0.52,1.82,0.79,2.73C96.49,41.54,98.02,43.99,99.55,46.45z"/>
	<path class="st19" d="M102.58,56.96c-0.91-2.99-1.82-5.97-2.73-8.96c0.51,0.27,1.27,0.41,1.49,0.83
		c3.39,6.41,6.72,12.86,10.06,19.3c-1.02-0.06-2.03-0.12-3.05-0.18c-1.08-2.39-2.15-4.79-3.22-7.18c-0.85-1.26-1.69-2.51-2.54-3.77
		C102.6,57,102.58,56.96,102.58,56.96z"/>
	<path class="st19" d="M99.55,46.45c-1.53-2.46-3.06-4.92-4.59-7.37C96.49,41.54,98.02,43.99,99.55,46.45z"/>
	<path class="st17" d="M60.13,95.32c-3.73,2.18-8.83,2.14-10.75,7.31c-0.83,2.23-7.23,2.28-10.06,0.6
		c-1.23-0.73-2.65-1.13-3.98-1.68c0.6-1.52,1.32-3.01,1.79-4.57c1.49-4.98,1.99-5.4,6.88-5.23c0.5-1.89-6.21-4.5,0.55-5.75
		c3.44,0.87,6.89,1.74,10.47,2.65c3.73-2.31,1.82-4.55-0.8-6.95c-1.87-1.72-3.46-3.75-5.17-5.64c-0.05-0.57-0.11-1.15-0.16-1.72
		c0.3-0.9,0.6-1.8,0.9-2.69c0.32,0.6,0.63,1.19,0.95,1.79c0.28,0.05,0.56,0.07,0.84,0.08c1.53,1.18,3.05,2.37,4.58,3.55
		c1.17,0.93,2.34,1.87,3.51,2.8c0.89,0.94,1.77,1.88,2.66,2.82c0.06,0.27,0.16,0.52,0.3,0.76c0.04,0.31,0.08,0.62,0.12,0.93
		c-0.03,0.59-0.05,1.17-0.08,1.76c-0.1,1.52-0.21,3.05-0.31,4.57c-0.19,0.43-0.37,0.85-0.56,1.28C61.26,93.08,60.7,94.2,60.13,95.32
		z"/>
	<path class="st12" d="M55.22,62.52c1.82-3.63,3.63-7.26,5.45-10.89c1.22-1.16,2.46-2.3,3.66-3.47c1.25-1.22,2.47-2.46,3.71-3.7
		c-0.62,2.71-1.24,5.41-1.86,8.12c-0.68,2.65-1.36,5.31-2.04,7.96c-0.83,1.74-1.64,3.49-2.5,5.21c-0.85,1.72-1.74,3.41-2.62,5.11
		C57.76,68.09,56.49,65.3,55.22,62.52z"/>
	<path class="st13" d="M68.04,44.46c-1.24,1.23-2.46,2.48-3.71,3.7c-1.21,1.17-2.44,2.32-3.66,3.47c2.23-4.3,4.42-8.62,6.7-12.9
		c3.08-5.8,6.16-11.62,9.42-17.32c0.57-1,2.06-1.48,3.12-2.2c-0.75,2.84-1.51,5.69-2.26,8.53c-0.56,0.71-1.13,1.42-1.69,2.14
		c-0.84,0.77-2,1.39-2.46,2.35C71.56,36.25,69.84,40.37,68.04,44.46z"/>
	<path class="st13" d="M55.22,62.52c1.27,2.78,2.53,5.57,3.8,8.35c0,0.24-0.03,0.49-0.08,0.72c-2.73,0.61-5.46,1.22-8.19,1.83
		c-0.32-0.6-0.63-1.19-0.95-1.79C51.61,68.6,53.41,65.56,55.22,62.52z"/>
	<path class="st19" d="M92.52,35.23c-0.29,0.03-0.57,0.05-0.86,0.04c-0.33-0.32-0.66-0.65-0.99-0.97c-2.02-3.26-4.04-6.52-6.05-9.78
		c-0.43-0.91-0.86-1.83-1.3-2.74c0.65,0.07,1.66-0.1,1.9,0.25c2.77,4.09,5.43,8.25,8.11,12.39C93.06,34.7,92.79,34.97,92.52,35.23z"
		/>
	<path class="st10" d="M83.32,21.79c0.43,0.91,0.86,1.83,1.29,2.74c-1.2-0.29-2.41-0.58-3.64-0.88c-0.66,1.4-1.38,2.93-2.09,4.46
		c-0.25,0.03-0.5,0.09-0.75,0.16c-0.17-0.17-0.34-0.35-0.5-0.53c0.75-2.84,1.51-5.69,2.26-8.53C81.04,20.07,82.18,20.93,83.32,21.79
		z"/>
	<path class="st6" d="M92.52,35.23c0.27-0.27,0.54-0.54,0.81-0.8c0.29,0.63,0.58,1.27,0.88,1.9C93.65,35.97,93.08,35.6,92.52,35.23z
		"/>
	<path class="st6" d="M48.94,69.79c0.07-0.12,0.14-0.25,0.21-0.37c-0.07,0.13-0.13,0.25-0.2,0.38
		C48.95,69.8,48.94,69.79,48.94,69.79z"/>
	<path class="st18" d="M49.06,76.06c1.71,1.89,3.3,3.92,5.17,5.64c2.62,2.4,4.53,4.64,0.8,6.95c-3.58-0.91-7.03-1.78-10.47-2.65
		C46.06,82.68,47.56,79.37,49.06,76.06z"/>
	<path class="st21" d="M42.52,115.08c0.62-1.24,1.24-2.49,1.85-3.73c1.57,0.33,3.14,0.98,4.7,0.94c3.24-0.09,6.47-0.54,9.7-0.85
		c2.17,0.01,4.33,0.03,6.5,0.04c0,0.31,0.01,0.61,0.01,0.92c0.01,0.6,0.02,1.2,0.03,1.8c-0.03,0.31-0.05,0.61-0.08,0.92
		c-0.89,0.04-2.53-0.01-2.55,0.15c-0.49,3.63-3.25,3.26-5.76,3.6c-0.61,0.08-1.1,1.1-1.65,1.69c-3.19,0.4-6.38,0.79-10.24,1.27
		c1.17-2.61,2.19-4.89,3.19-7.11C46.34,114.84,44.43,114.96,42.52,115.08z"/>
	<path class="st22" d="M42.52,115.08c1.91-0.12,3.82-0.25,5.72-0.37c-1,2.22-2.02,4.5-3.19,7.11c3.86-0.48,7.05-0.87,10.24-1.27
		c0.31,0.6,0.61,1.21,0.92,1.81c-1.89,0.6-3.78,1.22-5.68,1.79c-2.05,0.62-4.11,1.2-6.16,1.8c-2.01,0.45-4.03,0.9-6.04,1.35
		c0.05-1.88-0.38-3.94,0.25-5.59C39.48,119.35,41.17,117.28,42.52,115.08z"/>
	<path class="st23" d="M58.78,111.44c-3.23,0.3-6.46,0.76-9.7,0.85c-1.56,0.04-3.13-0.6-4.7-0.94c0.71-0.5,1.69-1.57,2.1-1.39
		c2.74,1.21,4.14-0.11,5.23-2.35c7.77-0.65,8.07-0.96,8.19-8.82c0.83,0.02,1.66,0.04,2.49,0.05c0.36,2.4,0.71,4.8,1.07,7.2
		C61.89,107.84,60.34,109.64,58.78,111.44z"/>
	<path class="st24" d="M56.2,122.37c-0.31-0.6-0.61-1.21-0.92-1.81c0.55-0.59,1.03-1.61,1.65-1.69c2.5-0.34,5.27,0.03,5.76-3.6
		c0.02-0.16,1.66-0.1,2.55-0.15c0.31,1.49,0.62,2.98,0.93,4.46c-1.86,0.88-3.73,1.75-5.59,2.63c-0.58,0.06-1.16,0.11-1.74,0.17
		C57.96,122.37,57.08,122.37,56.2,122.37z"/>
	<path class="st25" d="M56.2,122.37c0.88,0,1.76,0.01,2.63,0.01c0.36,0.44,0.71,0.88,1.68,2.06c-5.77,0.54-10.97,1.03-16.16,1.52
		c2.05-0.6,4.11-1.18,6.16-1.8C52.42,123.58,54.31,122.96,56.2,122.37z"/>
	<path class="st12" d="M38.23,115.22c0.9-2-0.65-5.63,3.59-5.43C40.62,111.59,39.42,113.41,38.23,115.22z"/>
	<path class="st12" d="M43.6,107.06c0.32-0.29,0.63-0.58,0.95-0.88C44.23,106.47,43.91,106.77,43.6,107.06z"/>
	<path class="st9" d="M62.38,98.85c-0.83-0.02-1.66-0.04-2.49-0.05c0.08-1.16,0.16-2.32,0.24-3.47c0.56-1.12,1.12-2.23,1.68-3.35
		c0.19-0.43,0.37-0.85,0.56-1.28c0.1-1.52,0.21-3.05,0.31-4.57C66.25,90.45,63.52,94.63,62.38,98.85z"/>
	<path class="st25" d="M66.17,119.58c-0.31-1.49-0.62-2.98-0.93-4.46c0.03-0.31,0.05-0.61,0.08-0.92c0.77-0.18,1.54-0.37,2.31-0.55
		c0-0.24,0-0.48-0.01-0.71c-0.78-0.18-1.55-0.36-2.33-0.53c0-0.31-0.01-0.61-0.02-0.92c1.06-0.15,2.13-0.3,3.14-0.44
		c-1.2-1.89-2.19-3.44-3.18-5c0.6-0.9,1.2-1.8,1.81-2.71c2.13,0.62,4.27,1.24,6.4,1.87c-0.09,3.74-3.77,8.09,1.84,10.86
		C72.24,117.24,69.21,118.41,66.17,119.58z"/>
	<path class="st24" d="M75.28,116.07c-5.61-2.78-1.93-7.12-1.84-10.86c0.6-0.01,1.21-0.02,1.81-0.03c0.57,1.04,3.73,0.99,1.38,3.26
		c0.74,0.42,1.48,0.84,2.23,1.25c1.2,2.09,2.41,4.17,3.61,6.26C80.07,115.99,77.68,116.03,75.28,116.07z"/>
	<path class="st22" d="M82.47,115.95c-1.2-2.09-2.41-4.17-3.61-6.26c0,0,0.01-0.01,0.01-0.01c0.6-0.59,1.2-1.19,1.8-1.78
		c1.21-0.62,2.43-1.24,3.64-1.86c0.3-0.01,0.61-0.02,0.91-0.03c0.91,0.61,1.81,1.23,2.72,1.84c0.6,2.44,1.2,4.87,1.8,7.31
		C87.32,115.42,84.89,115.68,82.47,115.95z"/>
	<path class="st15" d="M89.74,115.16c-0.6-2.44-1.2-4.87-1.8-7.31c1.2,0,2.41,0,3.61,0c0.05,3.58,1.44,5.29,5.33,4.24
		c0.79-0.21,1.91,0.82,2.88,1.28c-3.02,1.19-6.05,2.38-9.07,3.57C90.37,116.35,90.05,115.75,89.74,115.16z"/>
	<path class="st14" d="M99.75,113.37c-0.97-0.46-2.09-1.49-2.88-1.28c-3.89,1.05-5.28-0.66-5.33-4.24c0.92-0.02,1.84-0.04,2.77-0.06
		c0,0,0.02,0.01,0.02,0.01c0.25,0.08,0.5,0.16,0.76,0.24c5.45-0.08,10.9-0.17,16.35-0.25c-1.89,1-3.78,1.99-6.43,3.39
		c1.95,0.25,2.96,0.38,3.97,0.51C105.91,112.24,102.83,112.81,99.75,113.37z M101.41,110.82c0.03,0.2,0.06,0.41,0.08,0.61
		c0.61-0.1,1.21-0.19,1.82-0.29c-0.02-0.17-0.05-0.35-0.07-0.52C102.63,110.69,102.02,110.76,101.41,110.82z"/>
	<path class="st1" d="M124.21,102.01c0,0.32-0.01,0.64-0.01,0.96c-0.59,0.33-1.18,0.66-1.77,0.98
		C123.02,103.3,123.62,102.65,124.21,102.01z"/>
	<path class="st23" d="M91.85,99.9c-0.04,1.68-0.08,3.37-0.13,5.05c-1.86-0.85-3.72-1.7-5.58-2.55c-0.33-1.2-0.65-2.41-0.98-3.61
		c0.62-1.23,1.25-2.46,1.87-3.69c0.56,0.05,1.13,0.1,1.69,0.16C89.77,96.8,90.81,98.35,91.85,99.9z"/>
	<path class="st10" d="M92.58,84.36c-0.23,4.12-1.62,8.49,2.48,11.69c-0.75,0.4-1.51,0.8-2.26,1.2c-1.05-1.92-2.1-3.84-3.15-5.76
		c0.03-1.82,0.07-3.65,0.1-5.47c0.6-0.61,1.19-1.21,1.79-1.82C91.89,84.26,92.23,84.31,92.58,84.36z"/>
	<path class="st9" d="M86.15,102.4c1.86,0.85,3.72,1.7,5.58,2.55c0,0-0.1,0.06-0.1,0.07c0.3,0.34,0.61,0.68,0.91,1.02
		c0.59,0.58,1.18,1.17,1.78,1.75c-0.92,0.02-1.84,0.04-2.77,0.06c-1.2,0-2.41,0-3.61,0c-0.91-0.61-1.81-1.23-2.72-1.84
		C85.53,104.8,85.84,103.6,86.15,102.4z"/>
	<path class="st9" d="M89.64,91.5c1.05,1.92,2.1,3.84,3.15,5.76c-0.32,0.88-0.63,1.76-0.95,2.65c-1.04-1.55-2.08-3.1-3.12-4.65
		C89.04,94,89.34,92.75,89.64,91.5z"/>
	<path class="st23" d="M92.54,106.04c-0.3-0.34-0.61-0.68-0.91-1.02C91.93,105.36,92.24,105.7,92.54,106.04z"/>
	<path class="st9" d="M95.09,108.03c-0.25-0.08-0.51-0.16-0.76-0.24C94.62,107.77,94.87,107.85,95.09,108.03z"/>
	<path class="st9" d="M92.58,84.36c-0.35-0.05-0.69-0.1-1.04-0.15c1.51-2.1,3.02-4.19,4.53-6.29c0.71-4.07,2.68-2.03,4.46-0.91
		c0.01,0.3,0.02,0.59,0.03,0.89C97.9,80.05,95.24,82.21,92.58,84.36z"/>
	<path class="st26" d="M100.53,77c-1.78-1.12-3.74-3.16-4.46,0.91c-1.81-0.29-3.62-0.58-5.43-0.87c0-3.05,0-6.09,0-9.74
		c-0.47,0.16,0.21-0.07,0.89-0.31c0.33,0.05,0.66,0.1,0.99,0.15c1.25,1.46,2.65,4.27,3.73,4.15c5.04-0.55,3.51-5.19,3.98-9.77
		c2.83,3.41,4.81,5.79,6.78,8.17C104.86,72.14,102.69,74.57,100.53,77z"/>
	<path class="st23" d="M107.03,69.71c-1.98-2.38-3.96-4.77-6.78-8.17c-0.47,4.59,1.06,9.22-3.98,9.77
		c-1.08,0.12-2.48-2.69-3.73-4.16c0.57-0.32,1.14-0.63,1.71-0.95c2.33-1.85,3.08-3.89,0.93-6.45c-0.29-0.34,0.01-1.18,0.03-1.79
		c1.33-0.01,2.65-0.03,3.98-0.04c-0.24-1.19-0.45-2.39-0.74-3.57c-0.38-1.53-0.82-3.04-1.24-4.56c1.79,2.39,3.59,4.78,5.38,7.17
		c0,0,0.01,0.04,0.01,0.04c-2.16,3.28-0.36,3.9,2.54,3.77c1.07,2.39,2.15,4.79,3.22,7.18C107.92,68.54,107.47,69.12,107.03,69.71z"
		/>
	<path class="st26" d="M95.2,57.97c-0.03,0.61-0.32,1.44-0.03,1.79c2.14,2.55,1.39,4.59-0.93,6.45c-0.9-0.01-1.79-0.02-2.69-0.03
		c-0.02-1.2-0.05-2.4-0.07-3.61c0.02-0.61,0.03-1.21,0.05-1.82c1.98-4.92-3.04-4.84-5.01-6.96c0.16-1.32,0.31-2.63,0.46-3.94
		c0.44-2,0.87-4,1.08-4.92c2.36-1.04,3.83-1.69,5.29-2.33c0.91,1.81,1.82,3.63,2.72,5.44c-3,0-4.88,0.41-2.49,4.04
		C94.66,53.69,94.7,55.98,95.2,57.97z"/>
	<path class="st27" d="M93.35,42.59c-1.46,0.65-2.93,1.29-5.29,2.33c-0.2,0.92-0.64,2.92-1.08,4.92c-0.61,0-1.21-0.01-1.82-0.01
		c0.49-3.73-1.29-7.9,2.21-11.1c0.19-0.17-0.77-1.6-1.2-2.45c1.5-0.66,3-1.32,4.49-1.98c0.33,0.32,0.66,0.65,0.99,0.97
		c0,0.91-0.19,1.87,0.04,2.71C92.12,39.56,92.79,41.06,93.35,42.59z"/>
	<path class="st21" d="M95.2,57.97c-0.51-1.99-0.55-4.28-1.62-5.9c-2.39-3.63-0.51-4.04,2.49-4.04c0,0,0.01,0.01,0.01,0.01
		c0.29,0.29,0.58,0.58,0.87,0.87c0.08,0.29,0.16,0.59,0.24,0.88c0.42,1.52,0.86,3.03,1.24,4.56c0.29,1.18,0.5,2.38,0.74,3.57
		C97.86,57.94,96.53,57.96,95.2,57.97z"/>
	<path class="st26" d="M96.96,48.91c-0.29-0.29-0.58-0.58-0.87-0.87C96.38,48.33,96.67,48.62,96.96,48.91z"/>
	<path class="st10" d="M105.13,60.77c-2.9,0.13-4.7-0.49-2.54-3.77C103.44,58.26,104.29,59.52,105.13,60.77z"/>
	<path class="st27" d="M67.04,103.34c-0.6,0.9-1.2,1.8-1.8,2.71c-0.59,0-1.19,0-1.78,0c-0.36-2.4-0.71-4.8-1.07-7.2
		c1.13-4.22,3.87-8.4,0.3-12.73c0.03-0.59,0.05-1.17,0.08-1.76c0,0,0.35,0.02,0.35,0.02l0.35-0.07c0.47-0.83,1.53-1.86,1.32-2.45
		c-0.9-2.59-2.17-5.05-3.3-7.55c0.09-0.89,0.18-1.78,0.26-2.68c0.85-0.32,1.71-0.64,2.56-0.96c1.54,0.63,3.08,1.26,4.62,1.89
		c-0.33,1.19-0.65,2.38-0.98,3.57c-0.59,0.91-1.19,1.82-1.78,2.72c0.59,2.08,1.19,4.17,1.78,6.25c0.37-0.07,0.74-0.14,1.11-0.22
		c0.54-1.11,1.08-2.21,1.63-3.32c1.2,0.91,2.41,1.82,3.61,2.73c-0.27,0.51-0.41,1.26-0.83,1.49c-4.45,2.47-6.23,6.2-5.5,11.19
		c-0.33,0.77-0.65,1.55-1.07,2.53c0.62,0.08,1.29,0.16,1.96,0.24C68.26,100.95,67.65,102.14,67.04,103.34z"/>
	<path class="st10" d="M61.75,71.63c-0.09,0.89-0.18,1.78-0.26,2.68c0.28,2.79,0.57,5.58,0.85,8.37c-0.89-0.94-1.77-1.88-2.66-2.82
		c-0.25-2.76-0.49-5.51-0.74-8.27c0.06-0.24,0.08-0.48,0.08-0.72c0.88-1.7,1.77-3.4,2.62-5.11c0.86-1.73,1.67-3.47,2.5-5.21
		c0,0,0.25,0.21,0.25,0.21C63.51,64.38,62.63,68.01,61.75,71.63z"/>
	<path class="st12" d="M58.94,71.59c0.25,2.76,0.49,5.51,0.74,8.27c-1.17-0.93-2.34-1.87-3.51-2.8c-0.26-2.81-1.75-4.05-4.58-3.55
		c-0.28-0.01-0.56-0.04-0.84-0.08C53.48,72.81,56.21,72.2,58.94,71.59z"/>
	<path class="st14" d="M62.34,82.68c-0.28-2.79-0.56-5.58-0.85-8.37c1.13,2.51,2.4,4.97,3.3,7.55c0.21,0.59-0.85,1.62-1.32,2.45
		c-0.28-0.29-0.55-0.59-0.83-0.88C62.5,83.2,62.4,82.94,62.34,82.68z"/>
	<path class="st13" d="M51.59,73.51c2.83-0.5,4.32,0.73,4.58,3.55C54.64,75.87,53.12,74.69,51.59,73.51z"/>
	<path class="st11" d="M62.37,90.69c-0.19,0.43-0.37,0.85-0.56,1.28C62,91.54,62.19,91.11,62.37,90.69z"/>
	<path class="st10" d="M62.64,83.43c0.28,0.29,0.55,0.59,0.83,0.88c0,0-0.35,0.07-0.35,0.07s-0.36-0.02-0.35-0.02
		C62.72,84.05,62.68,83.74,62.64,83.43z"/>
	<path class="st20" d="M68.04,44.46c1.8-4.08,3.52-8.21,5.45-12.23c0.46-0.96,1.62-1.57,2.46-2.35c0.41,0.03,0.82,0.06,1.22,0.08
		c-0.07,0.85-0.15,1.7-0.22,2.56c-1.58,3.31-3.16,6.61-4.73,9.92c-0.23,0.65-0.45,1.31-0.68,1.96c-0.8,1.86-1.59,3.72-2.39,5.57
		c-0.13,0.54-0.26,1.09-0.39,1.63c-0.26-0.01-0.52,0.01-0.78,0.07c-0.6,0.3-1.21,0.6-1.81,0.9C66.8,49.87,67.42,47.17,68.04,44.46z"
		/>
	<path class="st10" d="M66.18,52.58c0.6-0.3,1.21-0.6,1.81-0.9c-1.2,3.03-2.4,6.05-3.6,9.08c0,0-0.25-0.21-0.25-0.21
		C64.82,57.89,65.5,55.23,66.18,52.58z"/>
	<path class="st10" d="M77.18,29.97c-0.41-0.03-0.81-0.06-1.22-0.08c0.56-0.71,1.13-1.42,1.69-2.14c0.16,0.18,0.32,0.35,0.49,0.53
		C77.82,28.84,77.5,29.4,77.18,29.97z"/>
	<path class="st14" d="M90.67,34.31c-1.5,0.66-3,1.32-4.49,1.98c-1.23-0.31-2.47-0.62-3.7-0.92c-0.21-2.9-0.29-5.88-3.59-7.25
		c0.72-1.53,1.43-3.06,2.09-4.46c1.23,0.3,2.44,0.59,3.64,0.88C86.64,27.79,88.65,31.05,90.67,34.31z"/>
	<path class="st21" d="M78.88,28.11c3.3,1.37,3.38,4.34,3.59,7.25c-0.01,0.3-0.01,0.6-0.02,0.91c-2.18,2.9-4.37,5.81-6.7,8.92
		c2.83,1.21,4.74,1.6,4.74-2.08c0-0.48,0.65-0.95,0.99-1.43c0.01,1.47,0.06,2.94,0,4.41c-0.07,1.6-0.25,3.19-0.39,4.85
		c1.89-0.51,2.98-0.8,4.07-1.1c0.61,0,1.21,0.01,1.82,0.01c-0.15,1.31-0.31,2.62-0.46,3.94c1.97,2.12,6.99,2.04,5.01,6.96
		c-2.48-0.31-5,0.69-7.17-2.17c-1.69-2.24-6.31-0.07-6.96,2.73c-0.98,4.25-2.05,8.48-3.3,12.65c-0.19,0.63-1.61,0.88-2.47,1.31
		c-0.32-0.92-0.64-1.85-0.95-2.77c-0.58-2.01,1.73-6.34-3.63-4.53c0.53-3.52,1.14-7.03,1.55-10.56c0.23-1.91,0.12-3.85,0.17-5.78
		c0.13-0.54,0.26-1.09,0.39-1.63c3.31-0.78,3.62-2.85,2.39-5.57c0.23-0.65,0.45-1.31,0.68-1.96c1.58-3.31,3.16-6.61,4.73-9.92
		c0.07-0.85,0.15-1.7,0.22-2.56c0.32-0.56,0.64-1.13,0.96-1.69C78.38,28.2,78.63,28.15,78.88,28.11z"/>
	<path class="st24" d="M63.45,106.05c0.6,0,1.19,0,1.78,0c0.99,1.55,1.97,3.1,3.18,5c-1.01,0.14-2.07,0.29-3.14,0.44
		c-2.16-0.01-4.33-0.03-6.5-0.04C60.34,109.64,61.89,107.84,63.45,106.05z"/>
	<path class="st24" d="M65.29,112.4c0.78,0.18,1.55,0.36,2.33,0.53c0,0.24,0,0.48,0.01,0.71c-0.77,0.18-1.54,0.37-2.31,0.55
		C65.31,113.6,65.3,113,65.29,112.4z"/>
	<path class="st15" d="M67.04,103.34c0.61-1.19,1.22-2.39,1.83-3.58c1.23-0.34,2.45-0.69,3.68-1.03c0.89,0.55,1.79,1.11,2.68,1.66
		c0.17-0.34,0.34-0.67,0.51-1.01c-1.07-0.47-2.14-0.95-3.21-1.42c0.9-0.93,1.81-1.86,2.71-2.78c1.01,0.82,2.01,1.64,3.02,2.46
		c0.28-1.17,0.56-2.34,0.93-3.89c0.71-0.47,2.01-1.31,3.31-2.16c2.58-0.2,4.72,0.15,4.54,3.52c-0.62,1.23-1.25,2.46-1.87,3.69
		c-1.42,0-2.83,0-4.37,0c-1.55,2.24-1.67,4.07,1.66,5.11c0.77,0.24,1.24,1.41,1.85,2.15c-1.21,0.62-2.43,1.24-3.64,1.86
		c-0.3-0.01-0.61-0.03-0.91-0.04c-0.28-1-0.41-2.09-0.89-2.98c-0.48-0.89-1.32-1.58-2-2.35c-0.54,0.88-1.09,1.77-1.63,2.65
		c-0.6,0.01-1.21,0.02-1.81,0.03C71.31,104.58,69.17,103.96,67.04,103.34z"/>
	<path class="st25" d="M75.25,105.17c0.54-0.88,1.09-1.77,1.63-2.65c0.68,0.78,1.52,1.47,2,2.35c0.48,0.89,0.61,1.98,0.89,2.98
		c-0.3,0.61-0.6,1.21-0.89,1.82c0,0-0.01,0.01-0.01,0.01c-0.74-0.42-1.48-0.84-2.23-1.25C78.98,106.16,75.82,106.21,75.25,105.17z"
		/>
	<path class="st14" d="M84.31,106.04c-0.61-0.74-1.09-1.91-1.85-2.15c-3.33-1.03-3.22-2.86-1.66-5.11c1.54,0,2.96,0,4.37,0
		c0.33,1.2,0.65,2.41,0.98,3.61c-0.31,1.2-0.62,2.41-0.93,3.61C84.92,106.01,84.62,106.03,84.31,106.04z"/>
	<path class="st24" d="M78.87,109.67c0.3-0.61,0.6-1.21,0.89-1.82c0.3,0.01,0.61,0.03,0.91,0.04
		C80.07,108.49,79.47,109.08,78.87,109.67z"/>
	<path class="st15" d="M101.41,110.82c0.61-0.07,1.22-0.13,1.83-0.2c0.02,0.17,0.05,0.35,0.07,0.52c-0.61,0.1-1.21,0.19-1.82,0.29
		C101.47,111.23,101.44,111.03,101.41,110.82z"/>
	<path class="st25" d="M87.04,95.09c0.19-3.37-1.96-3.72-4.54-3.52c-0.52-1.54-1.04-3.08-1.51-4.5c1.15-1.29,2.23-2.49,3.31-3.7
		c0.39,3.81,3.23,2.59,5.45,2.65c-0.03,1.82-0.07,3.65-0.1,5.47c-0.3,1.25-0.61,2.5-0.91,3.75C88.17,95.2,87.61,95.14,87.04,95.09z"
		/>
	<path class="st27" d="M89.75,86.03c-2.22-0.05-5.06,1.17-5.45-2.65c3.37-0.85,5.77-2.68,6.34-6.33c1.81,0.29,3.62,0.58,5.43,0.87
		c-1.51,2.1-3.02,4.19-4.53,6.29C90.94,84.81,90.34,85.42,89.75,86.03z"/>
	<path class="st24" d="M90.64,77.05c-0.57,3.65-2.97,5.48-6.34,6.33c-1.08,1.21-2.16,2.41-3.31,3.7c0.48,1.42,0.99,2.95,1.51,4.5
		c-1.3,0.85-2.59,1.69-3.31,2.16c-0.37,1.55-0.65,2.72-0.93,3.89c-1.01-0.82-2.01-1.64-3.02-2.46c0.69-1.12,1.47-2.2,2.06-3.37
		c2.15-4.24,1.31-7.13-2.1-7.49c-0.3,0-0.6,0-0.91,0c-1.2-0.91-2.41-1.82-3.61-2.73c0.9-0.01,1.79-0.03,2.69-0.04
		c0.61-0.59,1.22-1.18,1.83-1.77c1.71-2.74,3.94-5.3,5.01-8.27c1.96-5.42,5.71-8.78,11.26-8.93c0.02,1.2,0.05,2.4,0.07,3.61
		c0,0.28-0.01,0.56-0.01,0.83c-0.68,0.23-1.36,0.47-0.89,0.31C90.64,70.96,90.64,74,90.64,77.05z"/>
	<path class="st22" d="M91.54,67c0.01-0.28,0.01-0.56,0.01-0.83c0.9,0.01,1.79,0.02,2.69,0.03c-0.57,0.32-1.14,0.63-1.71,0.95
		C92.2,67.1,91.87,67.05,91.54,67z"/>
	<path class="st22" d="M91.48,62.56c-5.54,0.15-9.3,3.51-11.26,8.93c-1.07,2.97-3.3,5.53-5.01,8.27c-0.6,0-1.2,0-1.8,0
		c-0.59-1.5-1.19-3.01-1.78-4.51c0.85-0.43,2.28-0.68,2.47-1.31c1.26-4.17,2.32-8.4,3.3-12.65c0.65-2.8,5.27-4.96,6.96-2.73
		c2.17,2.86,4.69,1.86,7.17,2.17C91.51,61.35,91.5,61.96,91.48,62.56z"/>
	<path class="st26" d="M85.17,49.83c-1.09,0.29-2.18,0.59-4.07,1.1c0.14-1.66,0.32-3.25,0.39-4.85c0.06-1.47,0-2.94,0-4.41
		c0.32-1.8,0.65-3.61,0.97-5.41c0.01-0.3,0.01-0.6,0.02-0.91c1.23,0.31,2.47,0.62,3.7,0.92c0.43,0.85,1.39,2.28,1.2,2.45
		C83.88,41.93,85.66,46.11,85.17,49.83z"/>
	<path class="st25" d="M75.21,84.3c3.42,0.35,4.25,3.25,2.1,7.49c-0.59,1.17-1.37,2.25-2.06,3.37c-0.9,0.93-1.81,1.86-2.71,2.78
		c-0.01,0.26,0,0.52,0.01,0.77c-1.23,0.34-2.45,0.69-3.68,1.03c-0.67-0.08-1.34-0.17-1.96-0.24c0.42-0.99,0.74-1.76,1.07-2.53
		c0.8-0.62,1.7-1.13,2.37-1.87C73.12,92.04,76.21,89.08,75.21,84.3z"/>
	<path class="st26" d="M71.63,75.26c0.59,1.5,1.19,3.01,1.78,4.51c-0.01,0.59-0.02,1.18-0.03,1.77c-0.9,0.01-1.79,0.03-2.69,0.04
		c-0.54,1.11-1.08,2.21-1.63,3.32c-0.37,0.07-0.74,0.14-1.11,0.22c-0.59-2.08-1.19-4.17-1.78-6.25c0.59-0.91,1.19-1.82,1.78-2.72
		c0.33-1.19,0.65-2.38,0.98-3.57c0.58-0.02,1.16-0.05,1.74-0.07C71,73.41,71.31,74.33,71.63,75.26z"/>
	<path class="st14" d="M68.77,51.61c-0.05,1.93,0.06,3.87-0.17,5.78c-0.42,3.53-1.03,7.04-1.55,10.56
		c-0.91,0.91-1.82,1.81-2.73,2.72c-0.86,0.32-1.71,0.64-2.56,0.96c0.88-3.63,1.76-7.25,2.64-10.88c1.2-3.03,2.4-6.05,3.6-9.08
		C68.24,51.62,68.51,51.6,68.77,51.61z"/>
	<path class="st15" d="M75.21,84.3c1,4.78-2.09,7.74-4.87,10.81c-0.66,0.74-1.57,1.25-2.37,1.87c-0.74-4.99,1.05-8.72,5.5-11.19
		c0.42-0.23,0.56-0.98,0.83-1.49C74.61,84.3,74.91,84.3,75.21,84.3z"/>
	<path class="st22" d="M64.32,70.67c0.91-0.91,1.82-1.81,2.73-2.72c5.36-1.81,3.05,2.52,3.63,4.53c-0.58,0.02-1.16,0.05-1.74,0.07
		C67.4,71.93,65.86,71.3,64.32,70.67z"/>
	<path class="st14" d="M67.95,76.13c-0.59,0.91-1.19,1.82-1.78,2.72C66.77,77.95,67.36,77.04,67.95,76.13z"/>
	<path class="st14" d="M76.96,32.52c-1.58,3.31-3.15,6.61-4.73,9.92C73.8,39.14,75.38,35.83,76.96,32.52z"/>
	<path class="st14" d="M71.55,44.4c1.23,2.73,0.92,4.79-2.39,5.57C69.96,48.12,70.75,46.26,71.55,44.4z"/>
	<path class="st22" d="M82.46,36.27c-0.32,1.8-0.65,3.61-0.97,5.41c-0.35,0.48-0.99,0.95-0.99,1.43c0,3.68-1.91,3.29-4.74,2.08
		C78.09,42.07,80.27,39.17,82.46,36.27z"/>
	<path class="st24" d="M72.55,98.72c-0.01-0.26-0.02-0.52-0.01-0.77c1.07,0.47,2.14,0.95,3.21,1.42c-0.17,0.34-0.34,0.67-0.51,1.01
		C74.34,99.83,73.45,99.27,72.55,98.72z"/>
	<path class="st27" d="M73.38,81.53c0.01-0.59,0.02-1.18,0.03-1.77c0.6,0,1.2,0,1.8,0C74.6,80.36,73.99,80.94,73.38,81.53z"/>
</g>
</svg>
