<?xml version="1.0" encoding="UTF-8"?> <!-- Generator: Adobe Illustrator 23.0.1, SVG Export Plug-In . SVG Version: 6.00 Build 0) --> <svg xmlns="http://www.w3.org/2000/svg" xmlns:xlink="http://www.w3.org/1999/xlink" id="Layer_1" x="0px" y="0px" viewBox="0 0 500 500" style="enable-background:new 0 0 500 500;" xml:space="preserve"> <style type="text/css"> .st0{fill:#F04F46;} .st1{fill:#0A0A0A;} .st2{fill:#231F20;} </style> <g> <path class="st0" d="M164.5,253.4L147.1,294l34.5-10.5C174,276.8,168.3,266.8,164.5,253.4z"></path> <path class="st0" d="M325.8,253.2c-3.5,13.5-9,23.7-16.4,30.6l34.8,9.6L325.8,253.2z"></path> <path class="st1" d="M175.2,199.6c4.7-1.3,9.4-2.4,14-3.4c14.8-32.6,36.4-66.5,62.2-100.8c23.4,37.4,43.4,74.6,55.2,111.5 c3.8,1.5,7.7,3.1,11.6,4.8C311.9,160.5,285.8,108.4,253,56h0C215.7,105.7,187.1,154.5,175.2,199.6z"></path> <path class="st0" d="M293.9,205.2c-9.3-28.9-25-58.2-43.4-87.6c-20.3,27-37.2,53.6-48.8,79.2C232.5,190.1,260.4,192.1,293.9,205.2z "></path> <path class="st1" d="M181.3,274c22.3,35.2,69.1,45.6,104.4,23.2c17.5-11.1,29-28.2,33.3-46.9c21.1-5.9,34.2-12.1,34.2-12.1 s-8.6-5-23.3-11.1c-1.9-0.8-4-1.6-6.2-2.5c-0.4-0.1-0.8-0.3-1.2-0.4c-0.3-0.1-0.7-0.3-1-0.4l0,0c-0.4-0.1-0.8-0.3-1.2-0.4 c-0.6-0.2-1.3-0.5-2-0.7c-0.4-0.2-0.8-0.3-1.2-0.5c-0.4-0.1-0.7-0.3-1.1-0.4c-2.2-0.8-4.5-1.6-6.9-2.4l-0.1,0 c-1.2-0.4-2.4-0.8-3.6-1.2l-0.8-0.3c-1-0.3-2-0.6-3.1-0.9c-0.5-0.2-1-0.3-1.5-0.4c-0.9-0.3-1.7-0.5-2.6-0.8 c-0.7-0.2-1.4-0.4-2.1-0.6c-0.7-0.2-1.4-0.4-2.2-0.6c-0.9-0.2-1.7-0.5-2.6-0.7c-0.6-0.2-1.2-0.3-1.8-0.5c-1-0.3-2-0.5-3.1-0.8 c-0.5-0.1-1-0.2-1.5-0.4c-1.1-0.3-2.3-0.5-3.5-0.8c-0.4-0.1-0.9-0.2-1.3-0.3c-1.2-0.3-2.5-0.5-3.8-0.8c-0.4-0.1-0.8-0.2-1.2-0.2 c-1.3-0.3-2.7-0.5-4-0.8c-0.4-0.1-0.8-0.1-1.2-0.2c-1.4-0.2-2.7-0.5-4.1-0.7c-0.5-0.1-1-0.1-1.4-0.2c-1.3-0.2-2.6-0.4-3.9-0.6 c-0.7-0.1-1.4-0.2-2-0.3c-1.1-0.1-2.3-0.3-3.4-0.4c-1.3-0.2-2.6-0.3-3.9-0.4c-0.5-0.1-1.1-0.1-1.6-0.2c-3.8-0.3-7.6-0.6-11.5-0.8 c-6-0.3-11.9-0.3-17.8-0.1c-5.2,0.2-10.4,0.5-15.4,0.9c-5.5,0.5-10.9,1.2-16.1,1.9c-1.8,0.3-3.6,0.6-5.4,0.9 c-0.5,0.1-1.1,0.2-1.6,0.3c-2.8,0.5-5.5,1-8.2,1.6l-0.8,0.2l0,0l-0.2,0.1c-8,1.7-15.2,3.6-21.6,5.4c-1,0.3-2,0.6-3,0.9 c-17.5,5.3-28.1,10.3-28.1,10.3s20.5,11.9,52,21.4C173,257.9,176.3,266.2,181.3,274z M235.4,232.7c5.6-2.8,12.4-0.6,15.2,5 c2.8,5.6,0.6,12.4-5,15.2s-12.4,0.6-15.2-5C227.6,242.4,229.8,235.5,235.4,232.7z M182.8,229.9l0.7,0.2c0.9,0.3,1.9,0.5,2.9,0.8 c0.6,0.2,1.2,0.3,1.8,0.5l0.6,0.2l0.6,0.2c1,0.2,2,0.5,3,0.7l0,0c0.9,0.2,1.9,0.4,2.8,0.6l0.4,0.1c0.4,0.1,0.9,0.2,1.3,0.3 c0.9,0.2,1.9,0.4,2.9,0.6c0.6,0.1,1.3,0.3,1.9,0.4l1,0.2l0.6,0.1c1.9,0.4,3.9,0.7,5.9,1.1v0c0.5,0.1,1.1,0.2,1.6,0.3l0.2,0 c1.5,0.2,2.9,0.5,4.4,0.7l0.2,0c0.5,0.1,0.9,0.1,1.4,0.2l0,0c-2.5,7.3-2.2,15.5,1.6,22.9c7.4,14.5,25.2,20.3,39.7,12.9 c12.9-6.5,18.8-21.2,14.9-34.6c0.9-0.1,1.8-0.2,2.7-0.3c0.5-0.1,1-0.1,1.4-0.2c1.2-0.1,2.3-0.3,3.5-0.4c0.4,0,0.8-0.1,1.2-0.1 c1.2-0.2,2.4-0.3,3.6-0.5c0.3,0,0.7-0.1,1-0.1c1.2-0.2,2.5-0.4,3.7-0.6l0.9-0.1c1.3-0.2,2.5-0.4,3.7-0.6l0.8-0.1 c1.2-0.2,2.5-0.4,3.7-0.7l0.7-0.1c1.2-0.2,2.4-0.5,3.6-0.7l0.7-0.1c1.2-0.2,2.4-0.5,3.5-0.8l0.7-0.1c1.1-0.2,2.2-0.5,3.3-0.8 l0.7-0.2c1-0.2,2-0.5,2.9-0.7l0.9-0.2c-1.1,7.7-3.6,15.1-7.3,22l0,0l0,0c-5.4,10-13.3,18.7-23.5,25.3c-31.6,20-73.4,10.7-93.4-20.7 c-0.6-1-1.2-1.9-1.7-2.9c-4.4-7.8-7.1-16.2-8.2-24.7L182.8,229.9z"></path> <path class="st2" d="M453.2,377.6c-2.1-1.8-4.6-3.4-7.5-4.7c-2.9-1.3-6.2-2.6-9.8-3.7c-2.3-0.7-4.3-1.4-6.2-1.9 c-1.8-0.5-3.3-1.1-4.6-1.6c-1.3-0.6-2.2-1.2-2.9-1.8c-0.7-0.7-1-1.5-1-2.6c0-1.4,0.6-2.4,1.7-3c1.1-0.6,2.7-0.9,4.6-0.9 c2.4,0,4.8,0.4,7.3,1.2c2.5,0.8,4.7,1.6,6.7,2.5c2.4,1,4.7,2.2,6.9,3.6l9.3-17.9c-1.8-0.9-3.8-1.8-6-2.8c-2.2-1-4.6-1.9-7.2-2.8 c-2.6-0.9-5.2-1.6-7.9-2.1c-2.7-0.6-5.5-0.8-8.4-0.8c-3.9,0-7.6,0.6-11.2,1.7c-3.5,1.1-6.6,2.8-9.4,5c-2.7,2.2-4.9,5-6.5,8.3 c-1.6,3.3-2.4,7.2-2.4,11.5c0,2.9,0.4,5.4,1.2,7.7c0.8,2.2,2,4.2,3.6,5.9c1.6,1.7,3.7,3.3,6.2,4.7c2.5,1.4,5.5,2.6,9,3.8 c2.4,0.8,4.6,1.5,6.7,2.1c2.1,0.6,4,1.2,5.6,1.8c1.6,0.6,2.9,1.3,3.8,2.1c0.9,0.8,1.4,1.7,1.4,2.8c0,1-0.5,1.9-1.4,2.5 c-0.9,0.6-2.6,0.9-4.9,0.9c-3.1,0-6.2-0.4-9.2-1.3c-3-0.9-5.7-1.9-8-3c-2.8-1.3-5.5-2.7-8.1-4.3l-9.3,19c2.4,1.4,4.9,2.7,7.7,3.8 c2.8,1.1,5.7,2.1,8.7,2.9c3,0.8,6,1.4,9,1.9c3,0.4,6,0.7,8.9,0.7c3.6,0,7.2-0.4,10.8-1.3c3.6-0.8,6.8-2.2,9.6-4.2 c2.9-1.9,5.1-4.5,6.9-7.7c1.7-3.2,2.6-7.2,2.6-11.9c0-3.7-0.6-6.8-1.7-9.4C456.8,381.7,455.2,379.5,453.2,377.6z"></path> <path class="st2" d="M211.1,364.3c1.4-2,3.3-3.5,5.5-4.8c2.3-1.2,4.9-1.8,8-1.8c1.5,0,3,0.2,4.6,0.4c1.6,0.3,3.1,0.8,4.6,1.6 c1.5,0.7,2.8,1.7,4.1,3c1.2,1.3,2.2,2.8,2.9,4.8l16.5-11.8c-2.7-5.2-6.9-9.3-12.5-12.5c-5.6-3.1-12.2-4.7-19.8-4.7 c-6.4,0-12,1.1-17,3.4c-5,2.3-9.2,5.3-12.6,9c-3.5,3.7-6.1,7.9-7.9,12.5c-1.8,4.7-2.7,9.4-2.7,14.2c0,5,1,10,2.9,14.9 c1.9,4.9,4.6,9.2,8.2,13.1c3.5,3.8,7.7,6.9,12.5,9.3c4.8,2.3,10.2,3.5,16,3.5c3.3,0,6.7-0.4,10.3-1.2c3.5-0.8,6.8-2,9.9-3.6 c3.1-1.6,5.8-3.5,8.2-5.8c2.4-2.3,4.2-4.9,5.4-7.8l-17.6-10.5c-0.7,1.8-1.6,3.3-2.7,4.5c-1.1,1.2-2.4,2.2-3.9,3 c-1.4,0.8-2.9,1.3-4.5,1.7c-1.6,0.3-3.1,0.5-4.5,0.5c-2.8,0-5.3-0.6-7.6-1.7c-2.3-1.1-4.2-2.7-5.7-4.6c-1.6-1.9-2.7-4.1-3.6-6.7 c-0.8-2.5-1.2-5.1-1.2-7.9c0-2.4,0.4-4.9,1.1-7.4C208.6,368.5,209.7,366.3,211.1,364.3z"></path> <polygon class="st2" points="370.2,417.8 370.2,357.8 392.8,357.8 392.8,339 325.8,339 325.8,357.8 348.5,357.8 348.5,417.8 "></polygon> <path class="st2" d="M284.4,402.3h21l4.8,15.4h22L304.8,339h-19.7l-27.4,78.8h22.1L284.4,402.3z M294.9,363.5l7,24.4h-14.3 L294.9,363.5z"></path> <path class="st0" d="M131.6,338.3l-27.9,80.3l-16.9-29.4c3.6-2.6,6.5-5.9,8.5-9.9c2-4,3.1-8.4,3.1-13.1c0-3.4-0.7-6.8-2-10.1 c-1.4-3.4-3.2-6.3-5.6-9c-2.4-2.6-5.2-4.7-8.6-6.3c-3.3-1.6-7-2.4-10.9-2.4H34.2v80.4h22.1v-24.7h8.3l14.2,24.7h24.8h0.1h22.4 l4.8-15.7h21.4l4.9,15.7h22.4l-27.9-80.4H131.6z M74.1,372.5c-1.2,1.5-2.4,2.3-3.8,2.3H56.3v-17.2h13.4c1.4,0,2.7,0.7,4.1,2.2 c1.4,1.5,2,3.6,2,6.4C75.8,368.9,75.2,371,74.1,372.5z M134.2,388.3l7.5-24.9l7.1,24.9H134.2z"></path> </g> </svg> 